<svg width="1280" height="1745" viewBox="0 0 1280 1745" fill="none" xmlns="http://www.w3.org/2000/svg">
<g clip-path="url(#clip0_2258_4192)">
<rect width="1280" height="1745" fill="#FAFAFA"/>
<g opacity="0.02">
<g clip-path="url(#clip1_2258_4192)">
<path d="M53.0144 85.582L73.9568 64.6294L45.8282 36.4995C36.2673 26.9294 23.6074 22.0861 11.0722 22.1029C-1.45466 22.0861 -14.1229 26.9294 -23.6843 36.4995L-51.8119 64.6294L-30.8697 85.582L-2.74234 57.4521C1.11211 53.614 6.02194 51.7441 11.0638 51.7273C16.1057 51.7441 21.0157 53.6056 24.8703 57.4521L52.9977 85.582H53.0144ZM100.912 -46.1954L72.785 -18.0655C68.9472 -14.2106 67.0859 -9.30143 67.0703 -4.25788C67.0859 0.792859 68.9472 5.7033 72.785 9.54982L100.912 37.6797L79.9701 58.6311L51.8427 30.5012C42.2734 20.9395 37.4306 8.27002 37.4474 -4.25788C37.4306 -16.7858 42.2734 -29.4552 51.8427 -39.0098L79.9701 -67.1397L100.921 -46.1954H100.912ZM-30.8614 -94.0978L-2.73407 -65.9679C1.12038 -62.1214 6.02195 -60.261 11.0722 -60.2442C16.1141 -60.261 21.0241 -62.1214 24.8787 -65.9679L53.006 -94.0978L73.9568 -73.1464L45.8282 -45.0165C36.2673 -35.4451 23.6074 -30.6018 11.0722 -30.6186C-1.45466 -30.6018 -14.1229 -35.4451 -23.6843 -45.0165L-51.8119 -73.1464L-30.8614 -94.0978ZM-78.7598 37.6797L-50.6322 9.54982C-46.7944 5.6949 -44.9336 0.784459 -44.9171 -4.25788C-44.9336 -9.30143 -46.7944 -14.2106 -50.6322 -18.0655L-78.7598 -46.1954L-57.8095 -67.148L-29.6819 -39.0181C-20.1123 -29.4552 -15.2692 -16.7941 -15.2858 -4.26623C-15.2692 8.26168 -20.1123 20.9311 -29.6819 30.4928L-57.8095 58.6228L-78.7598 37.6713V37.6797Z" fill="#4E18A5"/>
<path d="M771.729 85.582L792.671 64.6294L764.544 36.4995C754.982 26.9294 742.323 22.0861 729.787 22.1029C717.26 22.0861 704.592 26.9294 695.031 36.4995L666.904 64.6294L687.846 85.582L715.973 57.4521C719.828 53.614 724.737 51.7441 729.78 51.7273C734.822 51.7441 739.73 53.6056 743.585 57.4521L771.712 85.582H771.729ZM819.627 -46.1954L791.5 -18.0655C787.662 -14.2106 785.802 -9.30143 785.785 -4.25788C785.802 0.792859 787.662 5.7033 791.5 9.54982L819.627 37.6797L798.686 58.6311L770.559 30.5012C760.988 20.9395 756.145 8.27002 756.162 -4.25788C756.145 -16.7858 760.988 -29.4552 770.559 -39.0098L798.686 -67.1397L819.635 -46.1954H819.627ZM687.854 -94.0978L715.982 -65.9679C719.835 -62.1214 724.737 -60.261 729.787 -60.2442C734.83 -60.261 739.739 -62.1214 743.593 -65.9679L771.721 -94.0978L792.671 -73.1464L764.544 -45.0165C754.982 -35.4451 742.323 -30.6018 729.787 -30.6186C717.26 -30.6018 704.592 -35.4451 695.031 -45.0165L666.904 -73.1464L687.854 -94.0978ZM639.955 37.6797L668.082 9.54982C671.92 5.6949 673.782 0.784459 673.798 -4.25788C673.782 -9.30143 671.92 -14.2106 668.082 -18.0655L639.955 -46.1954L660.906 -67.148L689.033 -39.0181C698.602 -29.4552 703.446 -16.7941 703.43 -4.26623C703.446 8.26168 698.602 20.9311 689.033 30.4928L660.906 58.6228L639.955 37.6713V37.6797Z" fill="#4E18A5"/>
<path d="M232.688 85.582L253.63 64.6294L225.503 36.4995C215.941 26.9294 203.282 22.0861 190.746 22.1029C178.219 22.0861 165.551 26.9294 155.99 36.4995L127.863 64.6294L148.805 85.582L176.932 57.4521C180.787 53.614 185.696 51.7441 190.739 51.7273C195.78 51.7441 200.689 53.6056 204.544 57.4521L232.672 85.582H232.688ZM280.587 -46.1954L252.459 -18.0655C248.621 -14.2106 246.761 -9.30143 246.744 -4.25788C246.761 0.792859 248.621 5.7033 252.459 9.54982L280.587 37.6797L259.645 58.6311L231.517 30.5012C221.947 20.9395 217.104 8.27002 217.121 -4.25788C217.104 -16.7858 221.947 -29.4552 231.517 -39.0098L259.645 -67.1397L280.594 -46.1954H280.587ZM148.813 -94.0978L176.941 -65.9679C180.794 -62.1214 185.696 -60.261 190.746 -60.2442C195.789 -60.261 200.698 -62.1214 204.552 -65.9679L232.68 -94.0978L253.63 -73.1464L225.503 -45.0165C215.941 -35.4451 203.282 -30.6018 190.746 -30.6186C178.219 -30.6018 165.551 -35.4451 155.99 -45.0165L127.863 -73.1464L148.813 -94.0978ZM100.914 37.6797L129.041 9.54982C132.879 5.6949 134.741 0.784459 134.757 -4.25788C134.741 -9.30143 132.879 -14.2106 129.041 -18.0655L100.914 -46.1954L121.865 -67.148L149.992 -39.0181C159.561 -29.4552 164.405 -16.7941 164.389 -4.26623C164.405 8.26168 159.561 20.9311 149.992 30.4928L121.865 58.6228L100.914 37.6713V37.6797Z" fill="#4E18A5"/>
<path d="M951.407 85.582L972.348 64.6294L944.221 36.4995C934.66 26.9294 922 22.0861 909.465 22.1029C896.938 22.0861 884.27 26.9294 874.707 36.4995L846.58 64.6294L867.522 85.582L895.65 57.4521C899.504 53.614 904.414 51.7441 909.456 51.7273C914.498 51.7441 919.408 53.6056 923.263 57.4521L951.39 85.582H951.407ZM999.305 -46.1954L971.177 -18.0655C967.34 -14.2106 965.478 -9.30143 965.461 -4.25788C965.478 0.792859 967.34 5.7033 971.177 9.54982L999.305 37.6797L978.362 58.6311L950.235 30.5012C940.666 20.9395 935.823 8.27002 935.839 -4.25788C935.823 -16.7858 940.666 -29.4552 950.235 -39.0098L978.362 -67.1397L999.313 -46.1954H999.305ZM867.531 -94.0978L895.658 -65.9679C899.513 -62.1214 904.414 -60.261 909.465 -60.2442C914.506 -60.261 919.416 -62.1214 923.271 -65.9679L951.398 -94.0978L972.348 -73.1464L944.221 -45.0165C934.66 -35.4451 922 -30.6018 909.465 -30.6186C896.938 -30.6018 884.27 -35.4451 874.707 -45.0165L846.58 -73.1464L867.531 -94.0978ZM819.633 37.6797L847.76 9.54982C851.598 5.6949 853.458 0.784459 853.475 -4.25788C853.458 -9.30143 851.598 -14.2106 847.76 -18.0655L819.633 -46.1954L840.582 -67.148L868.71 -39.0181C878.28 -29.4552 883.123 -16.7941 883.106 -4.26623C883.123 8.26168 878.28 20.9311 868.71 30.4928L840.582 58.6228L819.633 37.6713V37.6797Z" fill="#4E18A5"/>
<path d="M463.613 29.6167L463.607 -0.00761646H423.829C410.301 -0.0136132 397.924 5.51446 389.072 14.3901C380.203 23.237 374.669 35.621 374.675 49.1492V88.9315L404.297 88.9375V49.1553C404.309 43.7159 406.46 38.9218 410.013 35.3452C413.591 31.7901 418.377 29.6348 423.823 29.6288H463.601L463.613 29.6167ZM404.309 -97.4363V-57.654C404.321 -52.2146 406.478 -47.4266 410.031 -43.8487C413.613 -40.2888 418.401 -38.1335 423.834 -38.1275H463.613L463.619 -8.50192H423.84C410.313 -8.49592 397.93 -14.03 389.084 -22.9009C380.215 -31.7478 374.681 -44.1306 374.693 -57.654V-97.4363L404.315 -97.4423L404.309 -97.4363ZM277.262 -38.1215H317.04C322.485 -38.1275 327.267 -40.2781 330.85 -43.8379C334.404 -47.4146 336.559 -52.2026 336.565 -57.648V-97.4303H366.194V-57.648C366.199 -44.1198 360.672 -31.7418 351.796 -22.8889C342.95 -14.018 330.569 -8.48509 317.04 -8.49108H277.262V-38.1215ZM336.565 88.9315V49.1492C336.553 43.7099 334.398 38.9218 330.844 35.3452C327.267 31.7901 322.479 29.6347 317.04 29.6227H277.262V-0.00761646H317.04C330.569 -0.0136132 342.944 5.51446 351.79 14.3841C360.66 23.231 366.194 35.615 366.188 49.1432V88.9255H336.559L336.565 88.9315Z" fill="#4E18A5"/>
<path d="M1182.33 29.6167V-0.00761646H1142.54C1129.02 -0.0136132 1116.64 5.51446 1107.79 14.3901C1098.93 23.237 1093.38 35.621 1093.4 49.1492V88.9315L1123.02 88.9375V49.1553C1123.03 43.7159 1125.18 38.9218 1128.73 35.3452C1132.31 31.7901 1137.1 29.6348 1142.54 29.6288H1182.31L1182.33 29.6167ZM1123.03 -97.4363V-57.654C1123.04 -52.2146 1125.19 -47.4266 1128.75 -43.8487C1132.33 -40.2888 1137.12 -38.1335 1142.56 -38.1275H1182.33L1182.34 -8.50192H1142.56C1129.03 -8.49592 1116.65 -14.03 1107.8 -22.9009C1098.94 -31.7478 1093.4 -44.1306 1093.41 -57.654V-97.4363L1123.03 -97.4423V-97.4363ZM995.98 -38.1215H1035.76C1041.2 -38.1275 1045.98 -40.2781 1049.57 -43.8379C1053.12 -47.4146 1055.28 -52.2026 1055.28 -57.648V-97.4303H1084.91V-57.648C1084.92 -44.1198 1079.39 -31.7418 1070.52 -22.8889C1061.67 -14.018 1049.29 -8.48509 1035.76 -8.49108H995.98V-38.1215ZM1055.28 88.9315V49.1492C1055.27 43.7099 1053.12 38.9218 1049.56 35.3452C1045.98 31.7901 1041.2 29.6347 1035.76 29.6227H995.98V-0.00761646H1035.76C1049.29 -0.0136132 1061.66 5.51446 1070.51 14.3841C1079.38 23.231 1084.91 35.615 1084.91 49.1432V88.9255H1055.28L1055.28 88.9315Z" fill="#4E18A5"/>
<path d="M592.057 85.582L612.999 64.6294L584.871 36.4995C575.31 26.9294 562.65 22.0861 550.115 22.1029C537.588 22.0861 524.92 26.9294 515.358 36.4995L487.23 64.6294L508.173 85.582L536.3 57.4521C540.155 53.614 545.065 51.7441 550.107 51.7273C555.148 51.7441 560.058 53.6056 563.913 57.4521L592.04 85.582H592.057ZM639.955 -46.1954L611.828 -18.0655C607.99 -14.2106 606.129 -9.30143 606.112 -4.25788C606.129 0.792859 607.99 5.7033 611.828 9.54982L639.955 37.6797L619.013 58.6311L590.885 30.5012C581.316 20.9395 576.473 8.27002 576.49 -4.25788C576.473 -16.7858 581.316 -29.4552 590.885 -39.0098L619.013 -67.1397L639.963 -46.1954H639.955ZM508.181 -94.0978L536.309 -65.9679C540.163 -62.1214 545.065 -60.261 550.115 -60.2442C555.157 -60.261 560.067 -62.1214 563.921 -65.9679L592.049 -94.0978L612.999 -73.1464L584.871 -45.0165C575.31 -35.4451 562.65 -30.6018 550.115 -30.6186C537.588 -30.6018 524.92 -35.4451 515.358 -45.0165L487.23 -73.1464L508.181 -94.0978ZM460.283 37.6797L488.411 9.54982C492.248 5.6949 494.109 0.784459 494.125 -4.25788C494.109 -9.30143 492.248 -14.2106 488.411 -18.0655L460.283 -46.1954L481.233 -67.148L509.361 -39.0181C518.931 -29.4552 523.773 -16.7941 523.757 -4.26623C523.773 8.26168 518.931 20.9311 509.361 30.4928L481.233 58.6228L460.283 37.6713V37.6797Z" fill="#4E18A5"/>
<path d="M1310.77 85.582L1331.72 64.6294L1303.59 36.4995C1294.03 26.9294 1281.36 22.0861 1268.83 22.1029C1256.31 22.0861 1243.63 26.9294 1234.07 36.4995L1205.95 64.6294L1226.89 85.582L1255.01 57.4521C1258.88 53.614 1263.78 51.7441 1268.83 51.7273C1273.87 51.7441 1278.77 53.6056 1282.63 57.4521L1310.76 85.582H1310.77ZM1358.67 -46.1954L1330.55 -18.0655C1326.71 -14.2106 1324.85 -9.30143 1324.83 -4.25788C1324.85 0.792859 1326.71 5.7033 1330.55 9.54982L1358.67 37.6797L1337.73 58.6311L1309.61 30.5012C1300.04 20.9395 1295.19 8.27002 1295.2 -4.25788C1295.19 -16.7858 1300.04 -29.4552 1309.61 -39.0098L1337.73 -67.1397L1358.68 -46.1954H1358.67ZM1226.9 -94.0978L1255.03 -65.9679C1258.88 -62.1214 1263.78 -60.261 1268.83 -60.2442C1273.88 -60.261 1278.78 -62.1214 1282.63 -65.9679L1310.77 -94.0978L1331.72 -73.1464L1303.59 -45.0165C1294.03 -35.4451 1281.36 -30.6018 1268.83 -30.6186C1256.31 -30.6018 1243.63 -35.4451 1234.07 -45.0165L1205.95 -73.1464L1226.9 -94.0978ZM1179 37.6797L1207.13 9.54982C1210.96 5.6949 1212.82 0.784459 1212.85 -4.25788C1212.82 -9.30143 1210.96 -14.2106 1207.13 -18.0655L1179 -46.1954L1199.95 -67.148L1228.08 -39.0181C1237.65 -29.4552 1242.49 -16.7941 1242.47 -4.26623C1242.49 8.26168 1237.65 20.9311 1228.08 30.4928L1199.95 58.6228L1179 37.6713V37.6797Z" fill="#4E18A5"/>
<path d="M592.057 265.266L612.999 244.313L584.871 216.183C575.31 206.612 562.65 201.769 550.115 201.785C537.588 201.769 524.92 206.612 515.358 216.183L487.23 244.313L508.173 265.266L536.3 237.135C540.155 233.296 545.065 231.428 550.107 231.411C555.148 231.428 560.058 233.288 563.913 237.135L592.04 265.266H592.057ZM639.955 133.487L611.828 161.618C607.99 165.472 606.129 170.382 606.112 175.425C606.129 180.476 607.99 185.386 611.828 189.232L639.955 217.362L619.013 238.315L590.885 210.185C581.316 200.622 576.473 187.954 576.49 175.425C576.473 162.897 581.316 150.227 590.885 140.674L619.013 112.544L639.963 133.487H639.955ZM508.181 85.5847L536.309 113.715C540.163 117.561 545.065 119.423 550.115 119.439C555.157 119.423 560.067 117.561 563.921 113.715L592.049 85.5847L612.999 106.537L584.871 134.667C575.31 144.237 562.65 149.081 550.115 149.065C537.588 149.081 524.92 144.237 515.358 134.667L487.23 106.537L508.181 85.5847ZM460.283 217.362L488.411 189.232C492.248 185.377 494.109 180.468 494.125 175.425C494.109 170.382 492.248 165.472 488.411 161.618L460.283 133.487L481.233 112.536L509.361 140.665C518.931 150.227 523.773 162.888 523.757 175.416C523.773 187.945 518.931 200.615 509.361 210.176L481.233 238.306L460.283 217.354V217.362Z" fill="#4E18A5"/>
<path d="M1310.77 265.266L1331.72 244.313L1303.59 216.183C1294.03 206.612 1281.36 201.769 1268.83 201.785C1256.31 201.769 1243.63 206.612 1234.07 216.183L1205.95 244.313L1226.89 265.266L1255.01 237.135C1258.88 233.296 1263.78 231.428 1268.83 231.411C1273.87 231.428 1278.77 233.288 1282.63 237.135L1310.76 265.266H1310.77ZM1358.67 133.487L1330.55 161.618C1326.71 165.472 1324.85 170.382 1324.83 175.425C1324.85 180.476 1326.71 185.386 1330.55 189.232L1358.67 217.362L1337.73 238.315L1309.61 210.185C1300.04 200.622 1295.19 187.954 1295.2 175.425C1295.19 162.897 1300.04 150.227 1309.61 140.674L1337.73 112.544L1358.68 133.487H1358.67ZM1226.9 85.5847L1255.03 113.715C1258.88 117.561 1263.78 119.423 1268.83 119.439C1273.88 119.423 1278.78 117.561 1282.63 113.715L1310.77 85.5847L1331.72 106.537L1303.59 134.667C1294.03 144.237 1281.36 149.081 1268.83 149.065C1256.31 149.081 1243.63 144.237 1234.07 134.667L1205.95 106.537L1226.9 85.5847ZM1179 217.362L1207.13 189.232C1210.96 185.377 1212.82 180.468 1212.85 175.425C1212.82 170.382 1210.96 165.472 1207.13 161.618L1179 133.487L1199.95 112.536L1228.08 140.665C1237.65 150.227 1242.49 162.888 1242.47 175.416C1242.49 187.945 1237.65 200.615 1228.08 210.176L1199.95 238.306L1179 217.354V217.362Z" fill="#4E18A5"/>
<path d="M412.375 265.266L433.316 244.313L405.188 216.183C395.628 206.612 382.968 201.769 370.433 201.785C357.906 201.769 345.238 206.612 335.675 216.183L307.548 244.313L328.49 265.266L356.618 237.135C360.472 233.296 365.381 231.428 370.424 231.411C375.466 231.428 380.376 233.288 384.231 237.135L412.358 265.266H412.375ZM460.273 133.487L432.145 161.618C428.308 165.472 426.446 170.382 426.429 175.425C426.446 180.476 428.308 185.386 432.145 189.232L460.273 217.362L439.33 238.315L411.203 210.185C401.634 200.622 396.79 187.954 396.807 175.425C396.79 162.897 401.634 150.227 411.203 140.674L439.33 112.544L460.281 133.487H460.273ZM328.499 85.5847L356.626 113.715C360.481 117.561 365.381 119.423 370.433 119.439C375.474 119.423 380.384 117.561 384.238 113.715L412.366 85.5847L433.316 106.537L405.188 134.667C395.628 144.237 382.968 149.081 370.433 149.065C357.906 149.081 345.238 144.237 335.675 134.667L307.548 106.537L328.499 85.5847ZM280.6 217.362L308.728 189.232C312.566 185.377 314.426 180.468 314.443 175.425C314.426 170.382 312.566 165.472 308.728 161.618L280.6 133.487L301.55 112.536L329.678 140.665C339.248 150.227 344.091 162.888 344.074 175.416C344.091 187.945 339.248 200.615 329.678 210.176L301.55 238.306L280.6 217.354V217.362Z" fill="#4E18A5"/>
<path d="M1131.09 265.266L1152.03 244.313L1123.91 216.183C1114.35 206.612 1101.68 201.769 1089.15 201.785C1076.62 201.769 1063.95 206.612 1054.39 216.183L1026.26 244.313L1047.21 265.266L1075.33 237.135C1079.19 233.296 1084.1 231.428 1089.14 231.411C1094.19 231.428 1099.09 233.288 1102.94 237.135L1131.08 265.266H1131.09ZM1178.99 133.487L1150.87 161.618C1147.03 165.472 1145.16 170.382 1145.15 175.425C1145.16 180.476 1147.03 185.386 1150.87 189.232L1178.99 217.362L1158.05 238.315L1129.91 210.185C1120.34 200.622 1115.51 187.954 1115.52 175.425C1115.51 162.897 1120.34 150.227 1129.91 140.674L1158.05 112.544L1179 133.487H1178.99ZM1047.21 85.5847L1075.34 113.715C1079.2 117.561 1084.1 119.423 1089.15 119.439C1094.19 119.423 1099.1 117.561 1102.95 113.715L1131.08 85.5847L1152.03 106.537L1123.91 134.667C1114.35 144.237 1101.68 149.081 1089.15 149.065C1076.62 149.081 1063.95 144.237 1054.39 134.667L1026.26 106.537L1047.21 85.5847ZM999.316 217.362L1027.44 189.232C1031.28 185.377 1033.14 180.468 1033.16 175.425C1033.14 170.382 1031.28 165.472 1027.44 161.618L999.316 133.487L1020.27 112.536L1048.39 140.665C1057.96 150.227 1062.81 162.888 1062.79 175.416C1062.81 187.945 1057.96 200.615 1048.39 210.176L1020.27 238.306L999.316 217.354V217.362Z" fill="#4E18A5"/>
<path d="M283.933 209.297L283.927 179.672H244.148C230.621 179.667 218.244 185.194 209.392 194.071C200.522 202.918 194.99 215.3 194.996 228.83V268.612L224.617 268.618V228.836C224.629 223.397 226.78 218.602 230.333 215.025C233.91 211.471 238.697 209.315 244.142 209.309H283.921L283.933 209.297ZM224.629 82.2444V122.025C224.641 127.466 226.797 132.254 230.35 135.831C233.934 139.391 238.721 141.547 244.154 141.553H283.933L283.939 171.178H244.16C230.632 171.184 218.25 165.649 209.404 156.78C200.534 147.933 195.001 135.549 195.013 122.027V82.2444L224.635 82.2384L224.629 82.2444ZM97.582 141.559H137.361C142.806 141.553 147.587 139.403 151.169 135.843C154.724 132.265 156.879 127.478 156.885 122.031V82.2504H186.513V122.031C186.519 135.561 180.991 147.939 172.117 156.792C163.271 165.661 150.888 171.196 137.361 171.19H97.582V141.559ZM156.885 268.612V228.83C156.873 223.391 154.718 218.602 151.164 215.025C147.587 211.471 142.8 209.315 137.361 209.303H97.582V179.672H137.361C150.888 179.666 163.265 185.194 172.111 194.065C180.981 202.912 186.513 215.296 186.507 228.824V268.606H156.879L156.885 268.612Z" fill="#4E18A5"/>
<path d="M553.462 396.22L553.456 366.596H513.678C500.151 366.59 487.774 372.118 478.922 380.994C470.053 389.841 464.519 402.225 464.525 415.753V455.535L494.147 455.541V415.759C494.159 410.319 496.309 405.525 499.863 401.947C503.44 398.394 508.227 396.238 513.673 396.232H553.45L553.462 396.22ZM494.159 269.167V308.95C494.171 314.389 496.326 319.177 499.881 322.755C503.463 326.315 508.251 328.47 513.684 328.476H553.462L553.468 358.1H513.69C500.163 358.106 487.78 352.573 478.934 343.703C470.065 334.856 464.531 322.472 464.543 308.95V269.167L494.165 269.161L494.159 269.167ZM367.111 328.482H406.89C412.335 328.476 417.116 326.325 420.7 322.766C424.254 319.189 426.409 314.401 426.415 308.956V269.173H456.044V308.956C456.048 322.484 450.522 334.862 441.646 343.715C432.8 352.584 420.418 358.118 406.89 358.112H367.111V328.482ZM426.415 455.535V415.753C426.403 410.313 424.248 405.525 420.694 401.947C417.116 398.394 412.329 396.238 406.89 396.226H367.111V366.596H406.89C420.418 366.59 432.794 372.118 441.64 380.988C450.51 389.835 456.044 402.219 456.038 415.747V455.529H426.409L426.415 455.535Z" fill="#4E18A5"/>
<path d="M1134.25 454.741L1155.19 433.789L1127.07 405.659C1117.5 396.088 1104.84 391.245 1092.31 391.262C1079.78 391.245 1067.11 396.088 1057.55 405.659L1029.43 433.789L1050.37 454.741L1078.49 426.611C1082.35 422.773 1087.26 420.904 1092.3 420.887C1097.34 420.904 1102.25 422.765 1106.11 426.611L1134.23 454.741H1134.25ZM1182.15 322.963L1154.02 351.094C1150.18 354.948 1148.32 359.858 1148.31 364.901C1148.32 369.952 1150.18 374.862 1154.02 378.709L1182.15 406.839L1161.21 427.791L1133.08 399.661C1123.51 390.098 1118.67 377.429 1118.68 364.901C1118.67 352.373 1123.51 339.704 1133.08 330.15L1161.21 302.02L1182.16 322.963H1182.15ZM1050.37 275.061L1078.5 303.191C1082.36 307.037 1087.26 308.899 1092.31 308.916C1097.35 308.899 1102.26 307.037 1106.11 303.191L1134.24 275.061L1155.19 296.013L1127.07 324.143C1117.5 333.714 1104.84 338.557 1092.31 338.541C1079.78 338.557 1067.11 333.714 1057.55 324.143L1029.43 296.013L1050.37 275.061ZM1002.48 406.839L1030.6 378.709C1034.44 374.854 1036.3 369.944 1036.32 364.901C1036.3 359.858 1034.44 354.948 1030.6 351.094L1002.48 322.963L1023.43 302.012L1051.55 330.142C1061.12 339.704 1065.97 352.365 1065.95 364.893C1065.97 377.421 1061.12 390.09 1051.55 399.652L1023.43 427.782L1002.48 406.83V406.839Z" fill="#4E18A5"/>
<path d="M1320.26 454.741L1341.2 433.789L1313.08 405.659C1303.51 396.088 1290.85 391.245 1278.32 391.262C1265.79 391.245 1253.12 396.088 1243.56 405.659L1215.43 433.789L1236.38 454.741L1264.5 426.611C1268.36 422.773 1273.27 420.904 1278.31 420.887C1283.35 420.904 1288.26 422.765 1292.12 426.611L1320.24 454.741H1320.26ZM1368.16 322.963L1340.03 351.094C1336.19 354.948 1334.33 359.858 1334.32 364.901C1334.33 369.952 1336.19 374.862 1340.03 378.709L1368.16 406.839L1347.22 427.791L1319.09 399.661C1309.52 390.098 1304.68 377.429 1304.69 364.901C1304.68 352.373 1309.52 339.704 1319.09 330.15L1347.22 302.02L1368.17 322.963H1368.16ZM1236.38 275.061L1264.51 303.191C1268.37 307.037 1273.27 308.899 1278.32 308.916C1283.36 308.899 1288.27 307.037 1292.12 303.191L1320.25 275.061L1341.2 296.013L1313.08 324.143C1303.51 333.714 1290.85 338.557 1278.32 338.541C1265.79 338.557 1253.12 333.714 1243.56 324.143L1215.43 296.013L1236.38 275.061ZM1188.49 406.839L1216.61 378.709C1220.45 374.854 1222.31 369.944 1222.33 364.901C1222.31 359.858 1220.45 354.948 1216.61 351.094L1188.49 322.963L1209.44 302.012L1237.56 330.142C1247.13 339.704 1251.98 352.365 1251.96 364.893C1251.98 377.421 1247.13 390.09 1237.56 399.652L1209.44 427.782L1188.49 406.83V406.839Z" fill="#4E18A5"/>
<path d="M1002.65 209.297L1002.64 179.672H962.862C949.334 179.667 936.957 185.194 928.106 194.071C919.236 202.918 913.703 215.3 913.709 228.83V268.612L943.332 268.618L943.33 228.836C943.342 223.397 945.493 218.602 949.046 215.025C952.624 211.471 957.41 209.315 962.856 209.309H1002.63L1002.65 209.297ZM943.342 82.2444V122.025C943.354 127.466 945.511 132.254 949.064 135.831C952.647 139.391 957.434 141.547 962.868 141.553H1002.65L1002.65 171.178H962.873C949.346 171.184 936.963 165.649 928.117 156.78C919.248 147.933 913.715 135.549 913.727 122.027V82.2444L943.348 82.2384L943.342 82.2444ZM816.295 141.559H856.074C861.518 141.553 866.3 139.403 869.884 135.843C873.437 132.265 875.592 127.478 875.598 122.031V82.2504H905.227V122.031C905.233 135.561 899.706 147.939 890.83 156.792C881.983 165.661 869.602 171.196 856.074 171.19H816.295V141.559ZM875.598 268.612V228.83C875.588 223.391 873.431 218.602 869.878 215.025C866.3 211.471 861.512 209.315 856.074 209.303H816.295V179.672H856.074C869.602 179.666 881.977 185.194 890.824 194.065C899.694 202.912 905.227 215.296 905.221 228.824V268.606H875.592L875.598 268.612Z" fill="#4E18A5"/>
<path d="M53.0144 265.266L73.9567 244.313L45.8282 216.183C36.2673 206.612 23.6074 201.769 11.0722 201.785C-1.45466 201.769 -14.1229 206.612 -23.6843 216.183L-51.8119 244.313L-30.8697 265.266L-2.74235 237.135C1.11211 233.296 6.02194 231.428 11.0638 231.411C16.1057 231.428 21.0157 233.288 24.8703 237.135L52.9977 265.266H53.0144ZM100.912 133.487L72.785 161.618C68.9472 165.472 67.0859 170.382 67.0703 175.425C67.0859 180.476 68.9472 185.386 72.785 189.232L100.912 217.362L79.9701 238.315L51.8427 210.185C42.2734 200.622 37.4306 187.954 37.4474 175.425C37.4306 162.897 42.2734 150.227 51.8427 140.674L79.9701 112.544L100.921 133.487H100.912ZM-30.8614 85.5847L-2.73407 113.715C1.12038 117.561 6.02195 119.423 11.0722 119.439C16.1141 119.423 21.0241 117.561 24.8787 113.715L53.006 85.5847L73.9567 106.537L45.8282 134.667C36.2673 144.237 23.6074 149.081 11.0722 149.065C-1.45466 149.081 -14.1229 144.237 -23.6843 134.667L-51.8119 106.537L-30.8614 85.5847ZM-78.7598 217.362L-50.6322 189.232C-46.7944 185.377 -44.9336 180.468 -44.9171 175.425C-44.9336 170.382 -46.7944 165.472 -50.6322 161.618L-78.7598 133.487L-57.8095 112.536L-29.6819 140.665C-20.1123 150.227 -15.2692 162.888 -15.2858 175.416C-15.2692 187.945 -20.1123 200.615 -29.6819 210.176L-57.8095 238.306L-78.7598 217.354V217.362Z" fill="#4E18A5"/>
<path d="M64.9896 442.986L83.4092 419.784L52.2597 395.042C41.6691 386.624 28.541 383.255 16.0889 384.7C3.64132 386.111 -8.39243 392.366 -16.8013 402.964L-41.5409 434.116L-18.3478 452.546L6.39181 421.394C9.78285 417.141 14.448 414.724 19.4557 414.133C24.4672 413.575 29.5567 414.865 33.8241 418.247L64.9737 442.989L64.9896 442.986ZM97.5627 306.609L72.8231 337.762C69.449 342.028 68.16 347.119 68.7185 352.13C69.3108 357.146 71.7179 361.812 75.9694 365.197L107.118 389.938L88.7001 413.139L57.5514 388.398C46.9542 379.989 40.6999 367.954 39.2886 355.506C37.8444 343.061 41.2125 329.922 49.631 319.34L74.3705 288.188L97.5702 306.608L97.5627 306.609ZM-38.8113 274.035L-7.66208 298.777C-3.39444 302.159 1.6872 303.449 6.70678 302.89C11.7146 302.298 16.3795 299.891 19.7704 295.63L44.51 264.478L67.7111 282.906L42.9715 314.059C34.5634 324.656 22.5373 330.911 10.0818 332.323C-2.36129 333.766 -15.499 330.398 -26.0884 321.979L-57.2378 297.238L-38.8113 274.035ZM-71.3836 410.412L-46.6441 379.26C-43.2707 374.993 -41.9812 369.903 -42.5391 364.891C-43.1302 359.883 -45.5385 355.218 -49.7905 351.825L-80.9398 327.084L-62.5127 303.88L-31.3634 328.621C-20.7672 337.032 -14.5127 349.058 -13.102 361.506C-11.6581 373.951 -15.0264 387.09 -23.4439 397.68L-48.1835 428.832L-71.3845 410.404L-71.3836 410.412Z" fill="#4E18A5"/>
<path d="M239.277 448.349L260.218 427.396L232.091 399.266C222.53 389.696 209.87 384.852 197.335 384.868C184.808 384.852 172.14 389.696 162.578 399.266L134.45 427.396L155.393 448.349L183.52 420.218C187.375 416.379 192.283 414.511 197.327 414.494C202.368 414.511 207.278 416.372 211.132 420.218L239.26 448.349H239.277ZM287.175 316.571L259.048 344.701C255.21 348.556 253.349 353.465 253.332 358.508C253.349 363.559 255.21 368.469 259.048 372.315L287.175 400.445L266.233 421.398L238.105 393.268C228.535 383.706 223.692 371.037 223.709 358.508C223.692 345.98 228.535 333.31 238.105 323.757L266.233 295.627L287.183 316.571H287.175ZM155.401 268.668L183.528 296.798C187.383 300.644 192.283 302.506 197.335 302.522C202.377 302.506 207.287 300.644 211.14 296.798L239.269 268.668L260.218 289.62L232.091 317.75C222.53 327.32 209.87 332.165 197.335 332.148C184.808 332.165 172.14 327.32 162.578 317.75L134.45 289.62L155.401 268.668ZM107.502 400.445L135.631 372.315C139.468 368.46 141.328 363.551 141.345 358.508C141.328 353.465 139.468 348.556 135.631 344.701L107.502 316.571L128.453 295.619L156.58 323.748C166.151 333.31 170.993 345.971 170.977 358.5C170.993 371.028 166.151 383.698 156.58 393.259L128.453 421.389L107.502 400.437V400.445Z" fill="#4E18A5"/>
<path d="M822.966 316.89L822.96 287.265L783.182 287.266C769.655 287.26 757.278 292.787 748.426 301.664C739.557 310.51 734.023 322.894 734.029 336.423V376.205L763.651 376.211V336.429C763.663 330.989 765.813 326.195 769.367 322.617C772.944 319.064 777.731 316.908 783.176 316.902H822.954L822.966 316.89ZM763.663 189.837V229.619C763.675 235.059 765.83 239.847 769.383 243.424C772.967 246.983 777.755 249.14 783.188 249.146H822.966L822.972 278.77H783.193C769.665 278.776 757.284 273.242 748.438 264.373C739.567 255.526 734.035 243.142 734.046 229.619V189.837L763.669 189.831L763.663 189.837ZM636.615 249.152H676.394C681.839 249.146 686.62 246.995 690.203 243.436C693.757 239.858 695.913 235.071 695.919 229.625V189.843H725.546V229.625C725.552 243.154 720.025 255.532 711.15 264.385C702.304 273.254 689.921 278.788 676.394 278.782H636.615V249.152ZM695.919 376.205V336.423C695.907 330.983 693.752 326.195 690.198 322.617C686.62 319.064 681.833 316.908 676.394 316.896H636.615V287.266L676.394 287.265C689.921 287.26 702.298 292.787 711.144 301.658C720.014 310.504 725.546 322.888 725.54 336.417V376.199H695.913L695.919 376.205Z" fill="#4E18A5"/>
<path d="M951.405 452.187L972.346 431.234L944.219 403.104C934.658 393.534 921.998 388.691 909.463 388.706C896.936 388.691 884.268 393.534 874.705 403.104L846.578 431.234L867.52 452.187L895.648 424.057C899.502 420.218 904.412 418.349 909.454 418.332C914.496 418.349 919.406 420.21 923.261 424.057L951.388 452.187H951.405ZM999.303 320.409L971.175 348.539C967.338 352.394 965.476 357.303 965.459 362.347C965.476 367.397 967.338 372.308 971.175 376.154L999.303 404.284L978.36 425.236L950.233 397.106C940.664 387.544 935.821 374.875 935.838 362.347C935.821 349.819 940.664 337.149 950.233 327.595L978.36 299.465L999.311 320.409H999.303ZM867.529 272.507L895.656 300.637C899.511 304.483 904.412 306.343 909.463 306.36C914.505 306.343 919.415 304.483 923.269 300.637L951.396 272.507L972.346 293.458L944.219 321.588C934.658 331.159 921.998 336.003 909.463 335.986C896.936 336.003 884.268 331.159 874.705 321.588L846.578 293.458L867.529 272.507ZM819.631 404.284L847.758 376.154C851.596 372.299 853.456 367.389 853.473 362.347C853.456 357.303 851.596 352.394 847.758 348.539L819.631 320.409L840.58 299.456L868.708 327.586C878.278 337.149 883.121 349.81 883.104 362.338C883.121 374.866 878.278 387.536 868.708 397.097L840.58 425.227L819.631 404.276V404.284Z" fill="#4E18A5"/>
<path d="M53.0144 830.247L73.9568 851.2L45.8282 879.33C36.2673 888.9 23.6074 893.743 11.0722 893.726C-1.45466 893.743 -14.1229 888.9 -23.6843 879.33L-51.8119 851.2L-30.8697 830.247L-2.74234 858.377C1.11211 862.215 6.02194 864.085 11.0638 864.102C16.1057 864.085 21.0157 862.224 24.8703 858.377L52.9977 830.247H53.0144ZM100.912 962.025L72.785 933.895C68.9472 930.04 67.0859 925.131 67.0703 920.087C67.0859 915.036 68.9472 910.126 72.785 906.279L100.912 878.149L79.9701 857.198L51.8427 885.328C42.2734 894.89 37.4306 907.559 37.4474 920.087C37.4306 932.615 42.2734 945.284 51.8427 954.839L79.9701 982.969L100.921 962.025H100.912ZM-30.8614 1009.93L-2.73407 981.797C1.12038 977.95 6.02195 976.09 11.0722 976.073C16.1141 976.09 21.0241 977.95 24.8787 981.797L53.006 1009.93L73.9568 988.975L45.8282 960.846C36.2673 951.274 23.6074 946.431 11.0722 946.448C-1.45466 946.431 -14.1229 951.274 -23.6843 960.846L-51.8119 988.975L-30.8614 1009.93ZM-78.7598 878.149L-50.6322 906.279C-46.7944 910.134 -44.9336 915.045 -44.9171 920.087C-44.9336 925.131 -46.7944 930.04 -50.6322 933.895L-78.7598 962.025L-57.8095 982.977L-29.6819 954.847C-20.1123 945.284 -15.2692 932.623 -15.2858 920.095C-15.2692 907.567 -20.1123 894.898 -29.6819 885.336L-57.8095 857.206L-78.7598 878.158V878.149Z" fill="#4E18A5"/>
<path d="M771.729 830.247L792.671 851.2L764.544 879.33C754.982 888.9 742.323 893.743 729.787 893.726C717.26 893.743 704.592 888.9 695.031 879.33L666.904 851.2L687.846 830.247L715.973 858.377C719.828 862.215 724.737 864.085 729.78 864.102C734.822 864.085 739.73 862.224 743.585 858.377L771.712 830.247H771.729ZM819.627 962.025L791.5 933.895C787.662 930.04 785.802 925.131 785.785 920.087C785.802 915.036 787.662 910.126 791.5 906.279L819.627 878.149L798.686 857.198L770.559 885.328C760.988 894.89 756.145 907.559 756.162 920.087C756.145 932.615 760.988 945.284 770.559 954.839L798.686 982.969L819.635 962.025H819.627ZM687.854 1009.93L715.982 981.797C719.835 977.95 724.737 976.09 729.787 976.073C734.83 976.09 739.739 977.95 743.593 981.797L771.721 1009.93L792.671 988.975L764.544 960.846C754.982 951.274 742.323 946.431 729.787 946.448C717.26 946.431 704.592 951.274 695.031 960.846L666.904 988.975L687.854 1009.93ZM639.955 878.149L668.082 906.279C671.92 910.134 673.782 915.045 673.798 920.087C673.782 925.131 671.92 930.04 668.082 933.895L639.955 962.025L660.906 982.977L689.033 954.847C698.602 945.284 703.446 932.623 703.43 920.095C703.446 907.567 698.602 894.898 689.033 885.336L660.906 857.206L639.955 878.158V878.149Z" fill="#4E18A5"/>
<path d="M232.688 830.247L253.63 851.2L225.503 879.33C215.941 888.9 203.282 893.743 190.746 893.726C178.219 893.743 165.551 888.9 155.99 879.33L127.863 851.2L148.805 830.247L176.932 858.377C180.787 862.215 185.696 864.085 190.739 864.102C195.78 864.085 200.689 862.224 204.544 858.377L232.672 830.247H232.688ZM280.587 962.025L252.459 933.895C248.621 930.04 246.761 925.131 246.744 920.087C246.761 915.036 248.621 910.126 252.459 906.279L280.587 878.149L259.645 857.198L231.517 885.328C221.947 894.89 217.104 907.559 217.121 920.087C217.104 932.615 221.947 945.284 231.517 954.839L259.645 982.969L280.594 962.025H280.587ZM148.813 1009.93L176.941 981.797C180.794 977.95 185.696 976.09 190.746 976.073C195.789 976.09 200.698 977.95 204.552 981.797L232.68 1009.93L253.63 988.975L225.503 960.846C215.941 951.274 203.282 946.431 190.746 946.448C178.219 946.431 165.551 951.274 155.99 960.846L127.863 988.975L148.813 1009.93ZM100.914 878.149L129.041 906.279C132.879 910.134 134.741 915.045 134.757 920.087C134.741 925.131 132.879 930.04 129.041 933.895L100.914 962.025L121.865 982.977L149.992 954.847C159.561 945.284 164.405 932.623 164.389 920.095C164.405 907.567 159.561 894.898 149.992 885.336L121.865 857.206L100.914 878.158V878.149Z" fill="#4E18A5"/>
<path d="M951.407 830.247L972.348 851.2L944.221 879.33C934.66 888.9 922 893.743 909.465 893.726C896.938 893.743 884.27 888.9 874.707 879.33L846.58 851.2L867.522 830.247L895.65 858.377C899.504 862.215 904.414 864.085 909.456 864.102C914.498 864.085 919.408 862.224 923.263 858.377L951.39 830.247H951.407ZM999.305 962.025L971.177 933.895C967.34 930.04 965.478 925.131 965.461 920.087C965.478 915.036 967.34 910.126 971.177 906.279L999.305 878.149L978.362 857.198L950.235 885.328C940.666 894.89 935.823 907.559 935.839 920.087C935.823 932.615 940.666 945.284 950.235 954.839L978.362 982.969L999.313 962.025H999.305ZM867.531 1009.93L895.658 981.797C899.513 977.95 904.414 976.09 909.465 976.073C914.506 976.09 919.416 977.95 923.271 981.797L951.398 1009.93L972.348 988.975L944.221 960.846C934.66 951.274 922 946.431 909.465 946.448C896.938 946.431 884.27 951.274 874.707 960.846L846.58 988.975L867.531 1009.93ZM819.633 878.149L847.76 906.279C851.598 910.134 853.458 915.045 853.475 920.087C853.458 925.131 851.598 930.04 847.76 933.895L819.633 962.025L840.582 982.977L868.71 954.847C878.28 945.284 883.123 932.623 883.106 920.095C883.123 907.567 878.28 894.898 868.71 885.336L840.582 857.206L819.633 878.158V878.149Z" fill="#4E18A5"/>
<path d="M463.613 886.212L463.607 915.837H423.829C410.301 915.843 397.924 910.315 389.072 901.439C380.203 892.592 374.669 880.208 374.675 866.68V826.898L404.297 826.892V866.674C404.309 872.113 406.46 876.907 410.013 880.484C413.591 884.039 418.377 886.194 423.823 886.2H463.601L463.613 886.212ZM404.309 1013.27V973.483C404.321 968.044 406.478 963.256 410.031 959.678C413.613 956.118 418.401 953.963 423.834 953.957H463.613L463.619 924.331H423.84C410.313 924.325 397.93 929.859 389.084 938.73C380.215 947.577 374.681 959.96 374.693 973.483V1013.27L404.315 1013.27L404.309 1013.27ZM277.262 953.951H317.04C322.485 953.957 327.267 956.107 330.85 959.667C334.404 963.244 336.559 968.032 336.565 973.477V1013.26H366.194V973.477C366.199 959.949 360.672 947.571 351.796 938.718C342.95 929.847 330.569 924.314 317.04 924.32H277.262V953.951ZM336.565 826.898V866.68C336.553 872.119 334.398 876.907 330.844 880.484C327.267 884.039 322.479 886.194 317.04 886.206H277.262V915.837H317.04C330.569 915.843 342.944 910.315 351.79 901.445C360.66 892.598 366.194 880.214 366.188 866.686V826.904H336.559L336.565 826.898Z" fill="#4E18A5"/>
<path d="M462.175 1188.77L441.305 1209.8L413.068 1181.78C403.461 1172.26 398.569 1159.61 398.536 1147.08C398.472 1134.55 403.266 1121.86 412.799 1112.26L440.819 1084.02L461.85 1104.88L433.83 1133.12C430.008 1136.99 428.158 1141.91 428.161 1146.95C428.197 1152 430.076 1156.9 433.938 1160.74L462.175 1188.75L462.175 1188.77ZM330.59 1237.19L358.61 1208.95C362.449 1205.1 367.352 1203.22 372.395 1203.18C377.445 1203.18 382.362 1205.02 386.223 1208.84L414.46 1236.86L435.331 1215.83L407.093 1187.82C397.495 1178.29 384.807 1173.49 372.279 1173.56C359.753 1173.59 347.103 1178.49 337.586 1188.09L309.566 1216.33L330.59 1237.2L330.59 1237.19ZM282.18 1105.6L310.418 1133.62C314.278 1137.46 316.158 1142.35 316.195 1147.41C316.198 1152.45 314.355 1157.36 310.524 1161.23L282.504 1189.47L303.537 1210.34L331.557 1182.1C341.089 1172.5 345.884 1159.82 345.819 1147.29C345.787 1134.76 340.895 1122.11 331.287 1112.59L303.05 1084.57L282.18 1105.6ZM413.765 1057.18L385.745 1085.42C381.906 1089.27 377.003 1091.16 371.962 1091.19C366.918 1091.2 362.001 1089.35 358.132 1085.53L329.894 1057.51L309.025 1078.55L337.262 1106.57C346.861 1116.1 359.54 1120.89 372.067 1120.82C384.595 1120.79 397.245 1115.9 406.769 1106.29L434.789 1078.05L413.757 1057.18L413.765 1057.18Z" fill="#4E18A5"/>
<path d="M633.776 1140.36L612.907 1161.39L584.67 1133.37C575.063 1123.85 570.17 1111.21 570.138 1098.67C570.073 1086.14 574.868 1073.46 584.4 1063.86L612.42 1035.62L633.452 1056.48L605.432 1084.72C601.609 1088.59 599.759 1093.5 599.763 1098.54C599.798 1103.59 601.678 1108.49 605.54 1112.33L633.776 1140.35L633.776 1140.36ZM502.191 1188.78L530.211 1160.54C534.051 1156.69 538.954 1154.81 543.996 1154.77C549.047 1154.77 553.963 1156.61 557.824 1160.44L586.062 1188.45L606.932 1167.43L578.695 1139.41C569.097 1129.88 556.409 1125.08 543.881 1125.15C531.354 1125.18 518.704 1130.08 509.188 1139.69L481.168 1167.93L502.191 1188.79L502.191 1188.78ZM453.781 1057.2L482.019 1085.21C485.88 1089.05 487.76 1093.95 487.796 1099C487.8 1104.04 485.957 1108.96 482.126 1112.83L454.106 1141.07L475.139 1161.93L503.159 1133.69C512.69 1124.09 517.486 1111.42 517.42 1098.88C517.389 1086.35 512.496 1073.7 502.889 1064.18L474.651 1036.16L453.781 1057.2ZM585.367 1008.77L557.347 1037.01C553.507 1040.87 548.605 1042.75 543.563 1042.78C538.52 1042.79 533.603 1040.95 529.734 1037.12L501.496 1009.11L480.626 1030.14L508.864 1058.16C518.463 1067.69 531.142 1072.48 543.668 1072.42C556.196 1072.38 568.847 1067.49 578.371 1057.88L606.391 1029.64L585.358 1008.77L585.367 1008.77Z" fill="#4E18A5"/>
<path d="M462.776 1381.36L441.907 1402.39L413.67 1374.37C404.063 1364.85 399.17 1352.21 399.138 1339.67C399.073 1327.14 403.868 1314.46 413.4 1304.86L441.42 1276.62L462.452 1297.48L434.432 1325.72C430.609 1329.59 428.759 1334.5 428.763 1339.54C428.798 1344.59 430.678 1349.49 434.54 1353.33L462.776 1381.35L462.776 1381.36ZM331.191 1429.78L359.211 1401.54C363.051 1397.69 367.954 1395.81 372.996 1395.77C378.047 1395.77 382.963 1397.61 386.824 1401.44L415.062 1429.45L435.932 1408.43L407.695 1380.41C398.097 1370.88 385.409 1366.08 372.881 1366.15C360.354 1366.18 347.704 1371.08 338.188 1380.69L310.168 1408.93L331.191 1429.79L331.191 1429.78ZM282.781 1298.2L311.019 1326.21C314.88 1330.05 316.76 1334.95 316.796 1340C316.8 1345.04 314.957 1349.96 311.126 1353.83L283.106 1382.07L304.139 1402.93L332.159 1374.69C341.69 1365.09 346.486 1352.42 346.42 1339.88C346.389 1327.35 341.496 1314.7 331.889 1305.18L303.651 1277.16L282.781 1298.2ZM414.367 1249.77L386.347 1278.01C382.507 1281.87 377.605 1283.75 372.563 1283.78C367.52 1283.79 362.603 1281.95 358.734 1278.12L330.496 1250.11L309.626 1271.14L337.864 1299.16C347.463 1308.69 360.142 1313.48 372.668 1313.42C385.196 1313.38 397.847 1308.49 407.371 1298.88L435.391 1270.64L414.358 1249.77L414.367 1249.77Z" fill="#4E18A5"/>
<path d="M633.776 1328.36L612.907 1349.39L584.67 1321.37C575.063 1311.85 570.17 1299.21 570.138 1286.67C570.073 1274.14 574.868 1261.46 584.4 1251.86L612.42 1223.62L633.452 1244.48L605.432 1272.72C601.609 1276.59 599.759 1281.5 599.763 1286.54C599.798 1291.59 601.678 1296.49 605.54 1300.33L633.776 1328.35L633.776 1328.36ZM502.191 1376.78L530.211 1348.54C534.051 1344.69 538.954 1342.81 543.996 1342.77C549.047 1342.77 553.963 1344.61 557.824 1348.44L586.062 1376.45L606.932 1355.43L578.695 1327.41C569.097 1317.88 556.409 1313.08 543.881 1313.15C531.354 1313.18 518.704 1318.08 509.188 1327.69L481.168 1355.93L502.191 1376.79L502.191 1376.78ZM453.781 1245.2L482.019 1273.21C485.88 1277.05 487.76 1281.95 487.796 1287C487.8 1292.04 485.957 1296.96 482.126 1300.83L454.106 1329.07L475.139 1349.93L503.159 1321.69C512.69 1312.09 517.486 1299.42 517.42 1286.88C517.389 1274.35 512.496 1261.7 502.889 1252.18L474.651 1224.16L453.781 1245.2ZM585.367 1196.77L557.347 1225.01C553.507 1228.87 548.605 1230.75 543.563 1230.78C538.52 1230.79 533.603 1228.95 529.734 1225.12L501.496 1197.11L480.626 1218.14L508.864 1246.16C518.463 1255.69 531.142 1260.48 543.668 1260.42C556.196 1260.38 568.847 1255.49 578.371 1245.88L606.391 1217.64L585.358 1196.77L585.367 1196.77Z" fill="#4E18A5"/>
<path d="M796.776 1281.36L775.907 1302.39L747.67 1274.37C738.063 1264.85 733.17 1252.21 733.138 1239.67C733.073 1227.14 737.868 1214.46 747.4 1204.86L775.42 1176.62L796.452 1197.48L768.432 1225.72C764.609 1229.59 762.759 1234.5 762.763 1239.54C762.798 1244.59 764.678 1249.49 768.54 1253.33L796.776 1281.35L796.776 1281.36ZM665.191 1329.78L693.211 1301.54C697.051 1297.69 701.954 1295.81 706.996 1295.77C712.047 1295.77 716.963 1297.61 720.824 1301.44L749.062 1329.45L769.932 1308.43L741.695 1280.41C732.097 1270.88 719.409 1266.08 706.881 1266.15C694.354 1266.18 681.704 1271.08 672.188 1280.69L644.168 1308.93L665.191 1329.79L665.191 1329.78ZM616.781 1198.2L645.019 1226.21C648.88 1230.05 650.76 1234.95 650.796 1240C650.8 1245.04 648.957 1249.96 645.126 1253.83L617.106 1282.07L638.139 1302.93L666.159 1274.69C675.69 1265.09 680.486 1252.42 680.42 1239.88C680.389 1227.35 675.496 1214.7 665.889 1205.18L637.651 1177.16L616.781 1198.2ZM748.367 1149.77L720.347 1178.01C716.507 1181.87 711.605 1183.75 706.563 1183.78C701.52 1183.79 696.603 1181.95 692.734 1178.12L664.496 1150.11L643.626 1171.14L671.864 1199.16C681.463 1208.69 694.142 1213.48 706.668 1213.42C719.196 1213.38 731.847 1208.49 741.371 1198.88L769.391 1170.64L748.358 1149.77L748.367 1149.77Z" fill="#4E18A5"/>
<path d="M829.988 1447.92L811.852 1466.19L787.314 1441.84C778.965 1433.56 774.713 1422.58 774.685 1411.69C774.629 1400.8 778.796 1389.77 787.08 1381.43L811.429 1356.89L829.706 1375.02L805.356 1399.56C802.035 1402.92 800.427 1407.19 800.43 1411.58C800.461 1415.96 802.094 1420.22 805.45 1423.56L829.988 1447.9L829.988 1447.92ZM715.639 1490L739.988 1465.45C743.325 1462.11 747.586 1460.47 751.968 1460.44C756.357 1460.44 760.63 1462.04 763.985 1465.36L788.524 1489.71L806.66 1471.44L782.122 1447.09C773.781 1438.8 762.754 1434.64 751.868 1434.7C740.982 1434.73 729.989 1438.98 721.719 1447.33L697.369 1471.87L715.639 1490L715.639 1490ZM673.57 1375.64L698.109 1399.99C701.464 1403.33 703.098 1407.58 703.129 1411.97C703.132 1416.35 701.531 1420.62 698.202 1423.99L673.852 1448.53L692.13 1466.66L716.479 1442.12C724.763 1433.78 728.93 1422.76 728.873 1411.87C728.846 1400.98 724.594 1389.99 716.245 1381.71L691.706 1357.36L673.57 1375.64ZM787.92 1333.56L763.57 1358.1C760.233 1361.45 755.973 1363.09 751.592 1363.12C747.209 1363.12 742.936 1361.52 739.574 1358.2L715.035 1333.85L696.899 1352.13L721.438 1376.48C729.779 1384.76 740.797 1388.93 751.683 1388.87C762.57 1388.84 773.563 1384.59 781.84 1376.24L806.19 1351.7L787.912 1333.56L787.92 1333.56Z" fill="#4E18A5"/>
<path d="M674.776 1496.36L653.907 1517.39L625.67 1489.37C616.063 1479.85 611.17 1467.21 611.138 1454.67C611.073 1442.14 615.868 1429.46 625.4 1419.86L653.42 1391.62L674.452 1412.48L646.432 1440.72C642.609 1444.59 640.759 1449.5 640.763 1454.54C640.798 1459.59 642.678 1464.49 646.54 1468.33L674.776 1496.35L674.776 1496.36ZM543.191 1544.78L571.211 1516.54C575.051 1512.69 579.954 1510.81 584.996 1510.77C590.047 1510.77 594.963 1512.61 598.824 1516.44L627.062 1544.45L647.932 1523.43L619.695 1495.41C610.097 1485.88 597.409 1481.08 584.881 1481.15C572.354 1481.18 559.704 1486.08 550.188 1495.69L522.168 1523.93L543.191 1544.79L543.191 1544.78ZM494.781 1413.2L523.019 1441.21C526.88 1445.05 528.76 1449.95 528.796 1455C528.8 1460.04 526.957 1464.96 523.126 1468.83L495.106 1497.07L516.139 1517.93L544.159 1489.69C553.69 1480.09 558.486 1467.42 558.42 1454.88C558.389 1442.35 553.496 1429.7 543.889 1420.18L515.651 1392.16L494.781 1413.2ZM626.367 1364.77L598.347 1393.01C594.507 1396.87 589.605 1398.75 584.563 1398.78C579.52 1398.79 574.603 1396.95 570.734 1393.12L542.496 1365.11L521.626 1386.14L549.864 1414.16C559.463 1423.69 572.142 1428.48 584.668 1428.42C597.196 1428.38 609.847 1423.49 619.371 1413.88L647.391 1385.64L626.358 1364.77L626.367 1364.77Z" fill="#4E18A5"/>
<path d="M814.776 1098.36L793.907 1119.39L765.67 1091.37C756.063 1081.85 751.17 1069.21 751.138 1056.67C751.073 1044.14 755.868 1031.46 765.4 1021.86L793.42 993.616L814.452 1014.48L786.432 1042.72C782.609 1046.59 780.759 1051.5 780.763 1056.54C780.798 1061.59 782.678 1066.49 786.54 1070.33L814.776 1098.35L814.776 1098.36ZM683.191 1146.78L711.211 1118.54C715.051 1114.69 719.954 1112.81 724.996 1112.77C730.047 1112.77 734.963 1114.61 738.824 1118.44L767.062 1146.45L787.932 1125.43L759.695 1097.41C750.097 1087.88 737.409 1083.08 724.881 1083.15C712.354 1083.18 699.704 1088.08 690.188 1097.69L662.168 1125.93L683.191 1146.79L683.191 1146.78ZM634.781 1015.2L663.019 1043.21C666.88 1047.05 668.76 1051.95 668.796 1057C668.8 1062.04 666.957 1066.96 663.126 1070.83L635.106 1099.07L656.139 1119.93L684.159 1091.69C693.69 1082.09 698.486 1069.42 698.42 1056.88C698.389 1044.35 693.496 1031.7 683.889 1022.18L655.651 994.162L634.781 1015.2ZM766.367 966.774L738.347 995.014C734.507 998.867 729.605 1000.75 724.563 1000.78C719.52 1000.79 714.603 998.945 710.734 995.123L682.496 967.106L661.626 988.139L689.864 1016.16C699.463 1025.69 712.142 1030.48 724.668 1030.42C737.196 1030.38 749.847 1025.49 759.371 1015.88L787.391 987.642L766.358 966.774L766.367 966.774Z" fill="#4E18A5"/>
<path d="M1179.25 965.464L1158.44 986.545L1130.13 958.593C1120.5 949.092 1115.57 936.462 1115.51 923.927C1115.42 911.404 1120.18 898.698 1129.69 889.08L1157.64 860.77L1178.72 881.58L1150.77 909.89C1146.96 913.769 1145.12 918.689 1145.13 923.728C1145.19 928.778 1147.08 933.674 1150.95 937.504L1179.25 965.447L1179.25 965.464ZM1047.8 1014.22L1075.75 985.905C1079.58 982.043 1084.47 980.144 1089.52 980.101C1094.56 980.079 1099.49 981.916 1103.36 985.729L1131.66 1013.67L1152.48 992.598L1124.17 964.647C1114.55 955.137 1101.85 950.379 1089.32 950.473C1076.8 950.541 1064.16 955.46 1054.67 965.092L1026.72 993.401L1047.8 1014.22L1047.8 1014.22ZM999.057 882.736L1027.36 910.685C1031.23 914.516 1033.13 919.405 1033.18 924.456C1033.19 929.498 1031.36 934.42 1027.54 938.3L999.594 966.609L1020.67 987.423L1048.62 959.113C1058.13 949.494 1062.89 936.802 1062.8 924.266C1062.73 911.737 1057.81 899.1 1048.18 889.599L1019.87 861.65L999.057 882.736ZM1130.51 833.991L1102.57 862.301C1098.74 866.163 1093.84 868.055 1088.8 868.104C1083.75 868.12 1078.83 866.29 1074.95 862.477L1046.65 834.528L1025.83 855.613L1054.14 883.562C1063.76 893.072 1076.45 897.834 1088.98 897.738C1101.5 897.674 1114.14 892.745 1123.64 883.118L1151.59 854.808L1130.51 833.991L1130.51 833.991Z" fill="#4E18A5"/>
<path d="M592.057 830.247L612.999 851.2L584.871 879.33C575.31 888.9 562.65 893.743 550.115 893.726C537.588 893.743 524.92 888.9 515.358 879.33L487.23 851.2L508.173 830.247L536.3 858.377C540.155 862.215 545.065 864.085 550.107 864.102C555.148 864.085 560.058 862.224 563.913 858.377L592.04 830.247H592.057ZM639.955 962.025L611.828 933.895C607.99 930.04 606.129 925.131 606.112 920.087C606.129 915.036 607.99 910.126 611.828 906.279L639.955 878.149L619.013 857.198L590.885 885.328C581.316 894.89 576.473 907.559 576.49 920.087C576.473 932.615 581.316 945.284 590.885 954.839L619.013 982.969L639.963 962.025H639.955ZM508.181 1009.93L536.309 981.797C540.163 977.95 545.065 976.09 550.115 976.073C555.157 976.09 560.067 977.95 563.921 981.797L592.049 1009.93L612.999 988.975L584.871 960.846C575.31 951.274 562.65 946.431 550.115 946.448C537.588 946.431 524.92 951.274 515.358 960.846L487.23 988.975L508.181 1009.93ZM460.283 878.149L488.411 906.279C492.248 910.134 494.109 915.045 494.125 920.087C494.109 925.131 492.248 930.04 488.411 933.895L460.283 962.025L481.233 982.977L509.361 954.847C518.931 945.284 523.773 932.623 523.757 920.095C523.773 907.567 518.931 894.898 509.361 885.336L481.233 857.206L460.283 878.158V878.149Z" fill="#4E18A5"/>
<path d="M1310.77 830.247L1331.72 851.2L1303.59 879.33C1294.03 888.9 1281.36 893.743 1268.83 893.726C1256.31 893.743 1243.63 888.9 1234.07 879.33L1205.95 851.2L1226.89 830.247L1255.01 858.377C1258.88 862.215 1263.78 864.085 1268.83 864.102C1273.87 864.085 1278.77 862.224 1282.63 858.377L1310.76 830.247H1310.77ZM1358.67 962.025L1330.55 933.895C1326.71 930.04 1324.85 925.131 1324.83 920.087C1324.85 915.036 1326.71 910.126 1330.55 906.279L1358.67 878.149L1337.73 857.198L1309.61 885.328C1300.04 894.89 1295.19 907.559 1295.2 920.087C1295.19 932.615 1300.04 945.284 1309.61 954.839L1337.73 982.969L1358.68 962.025H1358.67ZM1226.9 1009.93L1255.03 981.797C1258.88 977.95 1263.78 976.09 1268.83 976.073C1273.88 976.09 1278.78 977.95 1282.63 981.797L1310.77 1009.93L1331.72 988.975L1303.59 960.846C1294.03 951.274 1281.36 946.431 1268.83 946.448C1256.31 946.431 1243.63 951.274 1234.07 960.846L1205.95 988.975L1226.9 1009.93ZM1179 878.149L1207.13 906.279C1210.96 910.134 1212.82 915.045 1212.85 920.087C1212.82 925.131 1210.96 930.04 1207.13 933.895L1179 962.025L1199.95 982.977L1228.08 954.847C1237.65 945.284 1242.49 932.623 1242.47 920.095C1242.49 907.567 1237.65 894.898 1228.08 885.336L1199.95 857.206L1179 878.158V878.149Z" fill="#4E18A5"/>
<path d="M53.0144 1018.5L73.9568 1039.46L45.8282 1067.59C36.2673 1077.16 23.6074 1082 11.0722 1081.98C-1.45466 1082 -14.1229 1077.16 -23.6843 1067.59L-51.8119 1039.46L-30.8697 1018.5L-2.74234 1046.63C1.11211 1050.47 6.02194 1052.34 11.0638 1052.36C16.1057 1052.34 21.0157 1050.48 24.8703 1046.63L52.9977 1018.5H53.0144ZM100.912 1150.28L72.785 1122.15C68.9472 1118.3 67.0859 1113.39 67.0703 1108.34C67.0859 1103.29 68.9472 1098.38 72.785 1094.54L100.912 1066.41L79.9701 1045.46L51.8427 1073.59C42.2734 1083.15 37.4306 1095.82 37.4474 1108.34C37.4306 1120.87 42.2734 1133.54 51.8427 1143.1L79.9701 1171.23L100.921 1150.28H100.912ZM-30.8614 1198.18L-2.73407 1170.05C1.12038 1166.21 6.02195 1164.35 11.0722 1164.33C16.1141 1164.35 21.0241 1166.21 24.8787 1170.05L53.006 1198.18L73.9568 1177.23L45.8282 1149.1C36.2673 1139.53 23.6074 1134.69 11.0722 1134.71C-1.45466 1134.69 -14.1229 1139.53 -23.6843 1149.1L-51.8119 1177.23L-30.8614 1198.18ZM-78.7598 1066.41L-50.6322 1094.54C-46.7944 1098.39 -44.9336 1103.3 -44.9171 1108.34C-44.9336 1113.39 -46.7944 1118.3 -50.6322 1122.15L-78.7598 1150.28L-57.8095 1171.23L-29.6819 1143.11C-20.1123 1133.54 -15.2692 1120.88 -15.2858 1108.35C-15.2692 1095.83 -20.1123 1083.16 -29.6819 1073.59L-57.8095 1045.46L-78.7598 1066.42V1066.41Z" fill="#4E18A5"/>
<path d="M232.688 1018.5L253.63 1039.46L225.503 1067.59C215.941 1077.16 203.282 1082 190.746 1081.98C178.219 1082 165.551 1077.16 155.99 1067.59L127.863 1039.46L148.805 1018.5L176.932 1046.63C180.787 1050.47 185.696 1052.34 190.739 1052.36C195.78 1052.34 200.689 1050.48 204.544 1046.63L232.672 1018.5H232.688ZM280.587 1150.28L252.459 1122.15C248.621 1118.3 246.761 1113.39 246.744 1108.34C246.761 1103.29 248.621 1098.38 252.459 1094.54L280.587 1066.41L259.645 1045.46L231.517 1073.59C221.947 1083.15 217.104 1095.82 217.121 1108.34C217.104 1120.87 221.947 1133.54 231.517 1143.1L259.645 1171.23L280.594 1150.28H280.587ZM148.813 1198.18L176.941 1170.05C180.794 1166.21 185.696 1164.35 190.746 1164.33C195.789 1164.35 200.698 1166.21 204.552 1170.05L232.68 1198.18L253.63 1177.23L225.503 1149.1C215.941 1139.53 203.282 1134.69 190.746 1134.71C178.219 1134.69 165.551 1139.53 155.99 1149.1L127.863 1177.23L148.813 1198.18ZM100.914 1066.41L129.041 1094.54C132.879 1098.39 134.741 1103.3 134.757 1108.34C134.741 1113.39 132.879 1118.3 129.041 1122.15L100.914 1150.28L121.865 1171.23L149.992 1143.11C159.561 1133.54 164.405 1120.88 164.389 1108.35C164.405 1095.83 159.561 1083.16 149.992 1073.59L121.865 1045.46L100.914 1066.42V1066.41Z" fill="#4E18A5"/>
<path d="M951.407 1018.5L972.348 1039.46L944.221 1067.59C934.66 1077.16 922 1082 909.465 1081.98C896.938 1082 884.27 1077.16 874.707 1067.59L846.58 1039.46L867.522 1018.5L895.65 1046.63C899.504 1050.47 904.414 1052.34 909.456 1052.36C914.498 1052.34 919.408 1050.48 923.263 1046.63L951.39 1018.5H951.407ZM999.305 1150.28L971.177 1122.15C967.34 1118.3 965.478 1113.39 965.461 1108.34C965.478 1103.29 967.34 1098.38 971.177 1094.54L999.305 1066.41L978.362 1045.46L950.235 1073.59C940.666 1083.15 935.823 1095.82 935.839 1108.34C935.823 1120.87 940.666 1133.54 950.235 1143.1L978.362 1171.23L999.313 1150.28H999.305ZM867.531 1198.18L895.658 1170.05C899.513 1166.21 904.414 1164.35 909.465 1164.33C914.506 1164.35 919.416 1166.21 923.271 1170.05L951.398 1198.18L972.348 1177.23L944.221 1149.1C934.66 1139.53 922 1134.69 909.465 1134.71C896.938 1134.69 884.27 1139.53 874.707 1149.1L846.58 1177.23L867.531 1198.18ZM819.633 1066.41L847.76 1094.54C851.598 1098.39 853.458 1103.3 853.475 1108.34C853.458 1113.39 851.598 1118.3 847.76 1122.15L819.633 1150.28L840.582 1171.23L868.71 1143.11C878.28 1133.54 883.123 1120.88 883.106 1108.35C883.123 1095.83 878.28 1083.16 868.71 1073.59L840.582 1045.46L819.633 1066.42V1066.41Z" fill="#4E18A5"/>
<path d="M1178.44 1151.42L1157.23 1172.09L1129.46 1143.61C1120.01 1133.92 1115.33 1121.2 1115.51 1108.67C1115.66 1096.14 1120.66 1083.53 1130.35 1074.1L1158.83 1046.33L1179.52 1067.54L1151.03 1095.31C1147.15 1099.11 1145.21 1104 1145.13 1109.03C1145.09 1114.08 1146.88 1119.02 1150.68 1122.92L1178.44 1151.4L1178.44 1151.42ZM1046.08 1197.64L1074.57 1169.87C1078.47 1166.09 1083.4 1164.28 1088.45 1164.33C1093.49 1164.41 1098.38 1166.34 1102.18 1170.23L1129.94 1198.7L1151.16 1178.03L1123.39 1149.54C1113.95 1139.85 1101.35 1134.85 1088.82 1134.71C1076.3 1134.54 1063.56 1139.21 1053.89 1148.66L1025.41 1176.43L1046.08 1197.65L1046.08 1197.64ZM999.864 1065.26L1027.63 1093.74C1031.43 1097.65 1033.23 1102.57 1033.18 1107.62C1033.1 1112.66 1031.18 1117.55 1027.28 1121.35L998.797 1149.12L1019.47 1170.34L1047.96 1142.57C1057.65 1133.13 1062.66 1120.53 1062.8 1108C1062.97 1095.47 1058.29 1082.74 1048.85 1073.06L1021.08 1044.57L999.864 1065.26ZM1132.23 1019.03L1103.75 1046.8C1099.84 1050.59 1094.91 1052.39 1089.87 1052.34C1084.82 1052.26 1079.94 1050.34 1076.13 1046.45L1048.37 1017.97L1027.15 1038.65L1054.92 1067.14C1064.36 1076.83 1076.96 1081.83 1089.48 1081.98C1102.01 1082.15 1114.73 1077.46 1124.42 1068.02L1152.9 1040.25L1132.22 1019.03L1132.23 1019.03Z" fill="#4E18A5"/>
<path d="M1310.77 1018.5L1331.72 1039.46L1303.59 1067.59C1294.03 1077.16 1281.36 1082 1268.83 1081.98C1256.31 1082 1243.63 1077.16 1234.07 1067.59L1205.95 1039.46L1226.89 1018.5L1255.01 1046.63C1258.88 1050.47 1263.78 1052.34 1268.83 1052.36C1273.87 1052.34 1278.77 1050.48 1282.63 1046.63L1310.76 1018.5H1310.77ZM1358.67 1150.28L1330.55 1122.15C1326.71 1118.3 1324.85 1113.39 1324.83 1108.34C1324.85 1103.29 1326.71 1098.38 1330.55 1094.54L1358.67 1066.41L1337.73 1045.46L1309.61 1073.59C1300.04 1083.15 1295.19 1095.82 1295.2 1108.34C1295.19 1120.87 1300.04 1133.54 1309.61 1143.1L1337.73 1171.23L1358.68 1150.28H1358.67ZM1226.9 1198.18L1255.03 1170.05C1258.88 1166.21 1263.78 1164.35 1268.83 1164.33C1273.88 1164.35 1278.78 1166.21 1282.63 1170.05L1310.77 1198.18L1331.72 1177.23L1303.59 1149.1C1294.03 1139.53 1281.36 1134.69 1268.83 1134.71C1256.31 1134.69 1243.63 1139.53 1234.07 1149.1L1205.95 1177.23L1226.9 1198.18ZM1179 1066.41L1207.13 1094.54C1210.96 1098.39 1212.82 1103.3 1212.85 1108.34C1212.82 1113.39 1210.96 1118.3 1207.13 1122.15L1179 1150.28L1199.95 1171.23L1228.08 1143.11C1237.65 1133.54 1242.49 1120.88 1242.47 1108.35C1242.49 1095.83 1237.65 1083.16 1228.08 1073.59L1199.95 1045.46L1179 1066.42V1066.41Z" fill="#4E18A5"/>
<path d="M53.0144 1387.22L73.9568 1366.27L45.8282 1338.14C36.2673 1328.57 23.6074 1323.72 11.0722 1323.74C-1.45466 1323.72 -14.1229 1328.57 -23.6843 1338.14L-51.8119 1366.27L-30.8697 1387.22L-2.74234 1359.09C1.11211 1355.25 6.02194 1353.38 11.0638 1353.36C16.1057 1353.38 21.0157 1355.24 24.8703 1359.09L52.9977 1387.22H53.0144ZM100.912 1255.44L72.785 1283.57C68.9472 1287.43 67.0859 1292.34 67.0703 1297.38C67.0859 1302.43 68.9472 1307.34 72.785 1311.19L100.912 1339.32L79.9701 1360.27L51.8427 1332.14C42.2734 1322.58 37.4306 1309.91 37.4474 1297.38C37.4306 1284.85 42.2734 1272.18 51.8427 1262.63L79.9701 1234.5L100.921 1255.44H100.912ZM-30.8614 1207.54L-2.73407 1235.67C1.12038 1239.52 6.02195 1241.38 11.0722 1241.39C16.1141 1241.38 21.0241 1239.52 24.8787 1235.67L53.006 1207.54L73.9568 1228.49L45.8282 1256.62C36.2673 1266.19 23.6074 1271.03 11.0722 1271.02C-1.45466 1271.03 -14.1229 1266.19 -23.6843 1256.62L-51.8119 1228.49L-30.8614 1207.54ZM-78.7598 1339.32L-50.6322 1311.19C-46.7944 1307.33 -44.9336 1302.42 -44.9171 1297.38C-44.9336 1292.34 -46.7944 1287.43 -50.6322 1283.57L-78.7598 1255.44L-57.8095 1234.49L-29.6819 1262.62C-20.1123 1272.18 -15.2692 1284.84 -15.2858 1297.37C-15.2692 1309.9 -20.1123 1322.57 -29.6819 1332.13L-57.8095 1360.26L-78.7598 1339.31V1339.32Z" fill="#4E18A5"/>
<path d="M232.688 1387.22L253.63 1366.27L225.503 1338.14C215.941 1328.57 203.282 1323.72 190.746 1323.74C178.219 1323.72 165.551 1328.57 155.99 1338.14L127.863 1366.27L148.805 1387.22L176.932 1359.09C180.787 1355.25 185.696 1353.38 190.739 1353.36C195.78 1353.38 200.689 1355.24 204.544 1359.09L232.672 1387.22H232.688ZM280.587 1255.44L252.459 1283.57C248.621 1287.43 246.761 1292.34 246.744 1297.38C246.761 1302.43 248.621 1307.34 252.459 1311.19L280.587 1339.32L259.645 1360.27L231.517 1332.14C221.947 1322.58 217.104 1309.91 217.121 1297.38C217.104 1284.85 221.947 1272.18 231.517 1262.63L259.645 1234.5L280.594 1255.44H280.587ZM148.813 1207.54L176.941 1235.67C180.794 1239.52 185.696 1241.38 190.746 1241.39C195.789 1241.38 200.698 1239.52 204.552 1235.67L232.68 1207.54L253.63 1228.49L225.503 1256.62C215.941 1266.19 203.282 1271.03 190.746 1271.02C178.219 1271.03 165.551 1266.19 155.99 1256.62L127.863 1228.49L148.813 1207.54ZM100.914 1339.32L129.041 1311.19C132.879 1307.33 134.741 1302.42 134.757 1297.38C134.741 1292.34 132.879 1287.43 129.041 1283.57L100.914 1255.44L121.865 1234.49L149.992 1262.62C159.561 1272.18 164.405 1284.84 164.389 1297.37C164.405 1309.9 159.561 1322.57 149.992 1332.13L121.865 1360.26L100.914 1339.31V1339.32Z" fill="#4E18A5"/>
<path d="M951.407 1387.22L972.348 1366.27L944.221 1338.14C934.66 1328.57 922 1323.72 909.465 1323.74C896.938 1323.72 884.27 1328.57 874.707 1338.14L846.58 1366.27L867.522 1387.22L895.65 1359.09C899.504 1355.25 904.414 1353.38 909.456 1353.36C914.498 1353.38 919.408 1355.24 923.263 1359.09L951.39 1387.22H951.407ZM999.305 1255.44L971.177 1283.57C967.34 1287.43 965.478 1292.34 965.461 1297.38C965.478 1302.43 967.34 1307.34 971.177 1311.19L999.305 1339.32L978.362 1360.27L950.235 1332.14C940.666 1322.58 935.823 1309.91 935.839 1297.38C935.823 1284.85 940.666 1272.18 950.235 1262.63L978.362 1234.5L999.313 1255.44H999.305ZM867.531 1207.54L895.658 1235.67C899.513 1239.52 904.414 1241.38 909.465 1241.39C914.506 1241.38 919.416 1239.52 923.271 1235.67L951.398 1207.54L972.348 1228.49L944.221 1256.62C934.66 1266.19 922 1271.03 909.465 1271.02C896.938 1271.03 884.27 1266.19 874.707 1256.62L846.58 1228.49L867.531 1207.54ZM819.633 1339.32L847.76 1311.19C851.598 1307.33 853.458 1302.42 853.475 1297.38C853.458 1292.34 851.598 1287.43 847.76 1283.57L819.633 1255.44L840.582 1234.49L868.71 1262.62C878.28 1272.18 883.123 1284.84 883.106 1297.37C883.123 1309.9 878.28 1322.57 868.71 1332.13L840.582 1360.26L819.633 1339.31V1339.32Z" fill="#4E18A5"/>
<path d="M1182.33 1331.25V1301.63H1142.54C1129.02 1301.62 1116.64 1307.15 1107.79 1316.03C1098.93 1324.87 1093.38 1337.26 1093.4 1350.79V1390.57L1123.02 1390.57V1350.79C1123.03 1345.35 1125.18 1340.56 1128.73 1336.98C1132.31 1333.43 1137.1 1331.27 1142.54 1331.27H1182.31L1182.33 1331.25ZM1123.03 1204.2V1243.98C1123.04 1249.42 1125.19 1254.21 1128.75 1257.79C1132.33 1261.35 1137.12 1263.5 1142.56 1263.51H1182.33L1182.34 1293.13H1142.56C1129.03 1293.14 1116.65 1287.61 1107.8 1278.74C1098.94 1269.89 1093.4 1257.51 1093.41 1243.98V1204.2L1123.03 1204.19V1204.2ZM995.98 1263.52H1035.76C1041.2 1263.51 1045.98 1261.36 1049.57 1257.8C1053.12 1254.22 1055.28 1249.43 1055.28 1243.99V1204.21H1084.91V1243.99C1084.92 1257.52 1079.39 1269.89 1070.52 1278.75C1061.67 1287.62 1049.29 1293.15 1035.76 1293.15H995.98V1263.52ZM1055.28 1390.57V1350.79C1055.27 1345.35 1053.12 1340.56 1049.56 1336.98C1045.98 1333.43 1041.2 1331.27 1035.76 1331.26H995.98V1301.63H1035.76C1049.29 1301.62 1061.66 1307.15 1070.51 1316.02C1079.38 1324.87 1084.91 1337.25 1084.91 1350.78V1390.56H1055.28L1055.28 1390.57Z" fill="#4E18A5"/>
<path d="M1310.77 1387.22L1331.72 1366.27L1303.59 1338.14C1294.03 1328.57 1281.36 1323.72 1268.83 1323.74C1256.31 1323.72 1243.63 1328.57 1234.07 1338.14L1205.95 1366.27L1226.89 1387.22L1255.01 1359.09C1258.88 1355.25 1263.78 1353.38 1268.83 1353.36C1273.87 1353.38 1278.77 1355.24 1282.63 1359.09L1310.76 1387.22H1310.77ZM1358.67 1255.44L1330.55 1283.57C1326.71 1287.43 1324.85 1292.34 1324.83 1297.38C1324.85 1302.43 1326.71 1307.34 1330.55 1311.19L1358.67 1339.32L1337.73 1360.27L1309.61 1332.14C1300.04 1322.58 1295.19 1309.91 1295.2 1297.38C1295.19 1284.85 1300.04 1272.18 1309.61 1262.63L1337.73 1234.5L1358.68 1255.44H1358.67ZM1226.9 1207.54L1255.03 1235.67C1258.88 1239.52 1263.78 1241.38 1268.83 1241.39C1273.88 1241.38 1278.78 1239.52 1282.63 1235.67L1310.77 1207.54L1331.72 1228.49L1303.59 1256.62C1294.03 1266.19 1281.36 1271.03 1268.83 1271.02C1256.31 1271.03 1243.63 1266.19 1234.07 1256.62L1205.95 1228.49L1226.9 1207.54ZM1179 1339.32L1207.13 1311.19C1210.96 1307.33 1212.82 1302.42 1212.85 1297.38C1212.82 1292.34 1210.96 1287.43 1207.13 1283.57L1179 1255.44L1199.95 1234.49L1228.08 1262.62C1237.65 1272.18 1242.49 1284.84 1242.47 1297.37C1242.49 1309.9 1237.65 1322.57 1228.08 1332.13L1199.95 1360.26L1179 1339.31V1339.32Z" fill="#4E18A5"/>
<path d="M592.057 650.564L612.999 671.517L584.871 699.647C575.31 709.218 562.65 714.062 550.115 714.045C537.588 714.062 524.92 709.218 515.358 699.647L487.23 671.517L508.173 650.564L536.3 678.696C540.155 682.534 545.065 684.402 550.107 684.419C555.148 684.402 560.058 682.542 563.913 678.696L592.04 650.564H592.057ZM639.955 782.343L611.828 754.212C607.99 750.358 606.129 745.448 606.112 740.406C606.129 735.354 607.99 730.444 611.828 726.598L639.955 698.468L619.013 677.515L590.885 705.645C581.316 715.208 576.473 727.876 576.49 740.406C576.473 752.933 581.316 765.603 590.885 775.156L619.013 803.286L639.963 782.343H639.955ZM508.181 830.245L536.309 802.116C540.163 798.269 545.065 796.408 550.115 796.391C555.157 796.408 560.067 798.269 563.921 802.116L592.049 830.245L612.999 809.293L584.871 781.163C575.31 771.593 562.65 766.75 550.115 766.765C537.588 766.75 524.92 771.593 515.358 781.163L487.23 809.293L508.181 830.245ZM460.283 698.468L488.411 726.598C492.248 730.453 494.109 735.362 494.125 740.406C494.109 745.448 492.248 750.358 488.411 754.212L460.283 782.343L481.233 803.295L509.361 775.165C518.931 765.603 523.773 752.942 523.757 740.414C523.773 727.885 518.931 715.215 509.361 705.654L481.233 677.524L460.283 698.476V698.468Z" fill="#4E18A5"/>
<path d="M631.186 481.081L652.128 502.034L624 530.164C614.439 539.735 601.779 544.578 589.244 544.561C576.717 544.578 564.049 539.735 554.487 530.164L526.359 502.034L547.302 481.081L575.429 509.212C579.284 513.05 584.194 514.919 589.235 514.936C594.277 514.919 599.187 513.059 603.042 509.212L631.169 481.081H631.186ZM679.084 612.86L650.957 584.729C647.119 580.875 645.258 575.964 645.241 570.922C645.258 565.87 647.119 560.961 650.957 557.114L679.084 528.985L658.142 508.032L630.014 536.162C620.445 545.725 615.602 558.393 615.619 570.922C615.602 583.45 620.445 596.119 630.014 605.673L658.142 633.803L679.092 612.86H679.084ZM547.31 660.762L575.437 632.632C579.292 628.786 584.194 626.924 589.244 626.907C594.286 626.924 599.196 628.786 603.05 632.632L631.178 660.762L652.128 639.809L624 611.679C614.439 602.109 601.779 597.266 589.244 597.282C576.717 597.266 564.049 602.109 554.487 611.679L526.359 639.809L547.31 660.762ZM499.412 528.985L527.539 557.114C531.377 560.969 533.237 565.879 533.254 570.922C533.237 575.964 531.377 580.875 527.539 584.729L499.412 612.86L520.362 633.811L548.49 605.681C558.059 596.119 562.902 583.458 562.885 570.931C562.902 558.401 558.059 545.732 548.49 536.17L520.362 508.04L499.412 528.993V528.985Z" fill="#4E18A5"/>
<path d="M663.419 358.954L677.405 372.941L658.619 391.718C652.234 398.107 643.78 401.34 635.408 401.329C627.043 401.34 618.582 398.107 612.197 391.718L593.412 372.941L607.398 358.954L626.182 377.732C628.757 380.295 632.036 381.542 635.403 381.553C638.77 381.542 642.049 380.3 644.623 377.732L663.407 358.954H663.419ZM695.406 446.92L676.622 428.142C674.059 425.569 672.816 422.292 672.805 418.926C672.816 415.553 674.059 412.276 676.622 409.709L695.406 390.931L681.42 376.945L662.636 395.722C656.245 402.106 653.011 410.562 653.023 418.926C653.011 427.288 656.245 435.746 662.636 442.123L681.42 460.9L695.412 446.92H695.406ZM607.404 478.897L626.188 460.119C628.762 457.551 632.036 456.309 635.408 456.297C638.776 456.309 642.055 457.551 644.629 460.119L663.413 478.897L677.405 464.91L658.619 446.132C652.234 439.744 643.78 436.511 635.408 436.521C627.043 436.511 618.582 439.744 612.197 446.132L593.412 464.91L607.404 478.897ZM575.416 390.931L594.2 409.709C596.763 412.282 598.006 415.559 598.017 418.926C598.006 422.292 596.763 425.569 594.2 428.142L575.416 446.92L589.407 460.906L608.192 442.128C614.583 435.746 617.817 427.294 617.805 418.931C617.817 410.568 614.583 402.111 608.192 395.728L589.407 376.95L575.416 390.937V390.931Z" fill="#4E18A5"/>
<path d="M1310.77 650.564L1331.72 671.517L1303.59 699.647C1294.03 709.218 1281.36 714.062 1268.83 714.045C1256.31 714.062 1243.63 709.218 1234.07 699.647L1205.95 671.517L1226.89 650.564L1255.01 678.696C1258.88 682.534 1263.78 684.402 1268.83 684.419C1273.87 684.402 1278.77 682.542 1282.63 678.696L1310.76 650.564H1310.77ZM1358.67 782.343L1330.55 754.212C1326.71 750.358 1324.85 745.448 1324.83 740.406C1324.85 735.354 1326.71 730.444 1330.55 726.598L1358.67 698.468L1337.73 677.515L1309.61 705.645C1300.04 715.208 1295.19 727.876 1295.2 740.406C1295.19 752.933 1300.04 765.603 1309.61 775.156L1337.73 803.286L1358.68 782.343H1358.67ZM1226.9 830.245L1255.03 802.116C1258.88 798.269 1263.78 796.408 1268.83 796.391C1273.88 796.408 1278.78 798.269 1282.63 802.116L1310.77 830.245L1331.72 809.293L1303.59 781.163C1294.03 771.593 1281.36 766.75 1268.83 766.765C1256.31 766.75 1243.63 771.593 1234.07 781.163L1205.95 809.293L1226.9 830.245ZM1179 698.468L1207.13 726.598C1210.96 730.453 1212.82 735.362 1212.85 740.406C1212.82 745.448 1210.96 750.358 1207.13 754.212L1179 782.343L1199.95 803.295L1228.08 775.165C1237.65 765.603 1242.49 752.942 1242.47 740.414C1242.49 727.885 1237.65 715.215 1228.08 705.654L1199.95 677.524L1179 698.476V698.468Z" fill="#4E18A5"/>
<path d="M412.375 650.564L433.316 671.517L405.188 699.647C395.628 709.218 382.968 714.062 370.433 714.045C357.906 714.062 345.238 709.218 335.675 699.647L307.548 671.517L328.49 650.564L356.618 678.696C360.472 682.534 365.381 684.402 370.424 684.419C375.466 684.402 380.376 682.542 384.231 678.696L412.358 650.564H412.375ZM460.273 782.343L432.145 754.212C428.308 750.358 426.446 745.448 426.429 740.406C426.446 735.354 428.308 730.444 432.145 726.598L460.273 698.468L439.33 677.515L411.203 705.645C401.634 715.208 396.79 727.876 396.807 740.406C396.79 752.933 401.634 765.603 411.203 775.156L439.33 803.286L460.281 782.343H460.273ZM328.499 830.245L356.626 802.116C360.481 798.269 365.381 796.408 370.433 796.391C375.474 796.408 380.384 798.269 384.238 802.116L412.366 830.245L433.316 809.293L405.188 781.163C395.628 771.593 382.968 766.75 370.433 766.765C357.906 766.75 345.238 771.593 335.675 781.163L307.548 809.293L328.499 830.245ZM280.6 698.468L308.728 726.598C312.566 730.453 314.426 735.362 314.443 740.406C314.426 745.448 312.566 750.358 308.728 754.212L280.6 782.343L301.55 803.295L329.678 775.165C339.248 765.603 344.091 752.942 344.074 740.414C344.091 727.885 339.248 715.215 329.678 705.654L301.55 677.524L280.6 698.476V698.468Z" fill="#4E18A5"/>
<path d="M786.763 534.305L801.28 548.899L781.781 568.493C775.153 575.16 766.377 578.534 757.687 578.522C749.003 578.534 740.221 575.16 733.592 568.493L714.094 548.899L728.612 534.305L748.11 553.899C750.782 556.573 754.185 557.875 757.681 557.886C761.177 557.875 764.58 556.579 767.252 553.899L786.751 534.305H786.763ZM819.967 626.095L800.469 606.501C797.808 603.816 796.518 600.396 796.506 596.884C796.518 593.365 797.808 589.945 800.469 587.266L819.967 567.672L805.449 553.077L785.951 572.671C779.317 579.332 775.959 588.157 775.971 596.884C775.959 605.61 779.317 614.435 785.951 621.089L805.449 640.683L819.973 626.095H819.967ZM728.617 659.462L748.116 639.868C750.788 637.189 754.185 635.892 757.687 635.88C761.182 635.892 764.586 637.189 767.257 639.868L786.757 659.462L801.28 644.867L781.781 625.273C775.153 618.607 766.377 615.234 757.687 615.245C749.003 615.234 740.221 618.607 733.592 625.273L714.094 644.867L728.617 659.462ZM695.412 567.672L714.912 587.266C717.572 589.951 718.862 593.371 718.873 596.884C718.862 600.396 717.572 603.816 714.912 606.501L695.412 626.095L709.936 640.689L729.435 621.095C736.069 614.435 739.426 605.616 739.415 596.89C739.426 588.162 736.069 579.337 729.435 572.677L709.936 553.083L695.412 567.678V567.672Z" fill="#4E18A5"/>
<path d="M786.763 403.933L801.28 418.527L781.781 438.121C775.153 444.788 766.377 448.162 757.687 448.15C749.003 448.162 740.221 444.788 733.592 438.121L714.094 418.527L728.612 403.933L748.11 423.527C750.782 426.201 754.185 427.503 757.681 427.514C761.177 427.503 764.58 426.207 767.252 423.527L786.751 403.933H786.763ZM819.967 495.723L800.469 476.129C797.808 473.444 796.518 470.024 796.506 466.512C796.518 462.993 797.808 459.573 800.469 456.894L819.967 437.3L805.449 422.705L785.951 442.299C779.317 448.96 775.959 457.784 775.971 466.512C775.959 475.238 779.317 484.063 785.951 490.717L805.449 510.311L819.973 495.723H819.967ZM728.617 529.09L748.116 509.496C750.788 506.817 754.185 505.52 757.687 505.508C761.182 505.52 764.586 506.817 767.257 509.496L786.757 529.09L801.28 514.495L781.781 494.901C775.153 488.235 766.377 484.862 757.687 484.873C749.003 484.862 740.221 488.235 733.592 494.901L714.094 514.495L728.617 529.09ZM695.412 437.3L714.912 456.894C717.572 459.579 718.862 462.999 718.873 466.512C718.862 470.024 717.572 473.444 714.912 476.129L695.412 495.723L709.936 510.317L729.435 490.723C736.069 484.063 739.426 475.244 739.415 466.518C739.426 457.79 736.069 448.965 729.435 442.305L709.936 422.711L695.412 437.306V437.3Z" fill="#4E18A5"/>
<path d="M1131.09 650.564L1152.03 671.517L1123.91 699.647C1114.35 709.218 1101.68 714.062 1089.15 714.045C1076.62 714.062 1063.95 709.218 1054.39 699.647L1026.26 671.517L1047.21 650.564L1075.33 678.696C1079.19 682.534 1084.1 684.402 1089.14 684.419C1094.19 684.402 1099.09 682.542 1102.94 678.696L1131.08 650.564H1131.09ZM1178.99 782.343L1150.87 754.212C1147.03 750.358 1145.16 745.448 1145.15 740.406C1145.16 735.354 1147.03 730.444 1150.87 726.598L1178.99 698.468L1158.05 677.515L1129.91 705.645C1120.34 715.208 1115.51 727.876 1115.52 740.406C1115.51 752.933 1120.34 765.603 1129.91 775.156L1158.05 803.286L1179 782.343H1178.99ZM1047.21 830.245L1075.34 802.116C1079.2 798.269 1084.1 796.408 1089.15 796.391C1094.19 796.408 1099.1 798.269 1102.95 802.116L1131.08 830.245L1152.03 809.293L1123.91 781.163C1114.35 771.593 1101.68 766.75 1089.15 766.765C1076.62 766.75 1063.95 771.593 1054.39 781.163L1026.26 809.293L1047.21 830.245ZM999.316 698.468L1027.44 726.598C1031.28 730.453 1033.14 735.362 1033.16 740.406C1033.14 745.448 1031.28 750.358 1027.44 754.212L999.316 782.343L1020.27 803.295L1048.39 775.165C1057.96 765.603 1062.81 752.942 1062.79 740.414C1062.81 727.885 1057.96 715.215 1048.39 705.654L1020.27 677.524L999.316 698.476V698.468Z" fill="#4E18A5"/>
<path d="M283.933 706.533L283.927 736.158H244.148C230.621 736.163 218.244 730.636 209.392 721.759C200.522 712.912 194.99 700.53 194.996 687V647.218L224.617 647.212V686.994C224.629 692.434 226.78 697.228 230.333 700.805C233.91 704.359 238.697 706.515 244.142 706.521H283.921L283.933 706.533ZM224.629 833.586V793.805C224.641 788.364 226.797 783.576 230.35 779.999C233.934 776.439 238.721 774.283 244.154 774.277H283.933L283.939 744.653H244.16C230.632 744.647 218.25 750.181 209.404 759.05C200.534 767.897 195.001 780.281 195.013 793.803V833.586L224.635 833.592L224.629 833.586ZM97.582 774.271H137.361C142.806 774.277 147.587 776.427 151.169 779.987C154.724 783.565 156.879 788.352 156.885 793.799V833.58H186.513V793.799C186.519 780.269 180.991 767.891 172.117 759.038C163.271 750.169 150.888 744.635 137.361 744.641H97.582V774.271ZM156.885 647.218V687C156.873 692.44 154.718 697.228 151.164 700.805C147.587 704.359 142.8 706.515 137.361 706.527H97.582V736.158H137.361C150.888 736.164 163.265 730.636 172.111 721.765C180.981 712.918 186.513 700.534 186.507 687.006V647.224H156.879L156.885 647.218Z" fill="#4E18A5"/>
<path d="M1134.25 461.089L1155.19 482.041L1127.07 510.171C1117.5 519.742 1104.84 524.585 1092.31 524.568C1079.78 524.585 1067.11 519.742 1057.55 510.171L1029.43 482.041L1050.37 461.089L1078.49 489.219C1082.35 493.057 1087.26 494.926 1092.3 494.943C1097.34 494.926 1102.25 493.065 1106.11 489.219L1134.23 461.089H1134.25ZM1182.15 592.867L1154.02 564.736C1150.18 560.882 1148.32 555.972 1148.31 550.929C1148.32 545.878 1150.18 540.968 1154.02 537.121L1182.15 508.991L1161.21 488.039L1133.08 516.169C1123.51 525.732 1118.67 538.401 1118.68 550.929C1118.67 563.457 1123.51 576.126 1133.08 585.68L1161.21 613.81L1182.16 592.867H1182.15ZM1050.37 640.769L1078.5 612.639C1082.36 608.793 1087.26 606.931 1092.31 606.914C1097.35 606.931 1102.26 608.793 1106.11 612.639L1134.24 640.769L1155.19 619.817L1127.07 591.687C1117.5 582.117 1104.84 577.273 1092.31 577.289C1079.78 577.273 1067.11 582.117 1057.55 591.687L1029.43 619.817L1050.37 640.769ZM1002.48 508.991L1030.6 537.121C1034.44 540.976 1036.3 545.886 1036.32 550.929C1036.3 555.972 1034.44 560.882 1030.6 564.736L1002.48 592.867L1023.43 613.818L1051.55 585.688C1061.12 576.126 1065.97 563.465 1065.95 550.937C1065.97 538.409 1061.12 525.74 1051.55 516.178L1023.43 488.048L1002.48 509V508.991Z" fill="#4E18A5"/>
<path d="M1320.26 461.089L1341.2 482.041L1313.08 510.171C1303.51 519.742 1290.85 524.585 1278.32 524.568C1265.79 524.585 1253.12 519.742 1243.56 510.171L1215.43 482.041L1236.38 461.089L1264.5 489.219C1268.36 493.057 1273.27 494.926 1278.31 494.943C1283.35 494.926 1288.26 493.065 1292.12 489.219L1320.24 461.089H1320.26ZM1368.16 592.867L1340.03 564.736C1336.19 560.882 1334.33 555.972 1334.32 550.929C1334.33 545.878 1336.19 540.968 1340.03 537.121L1368.16 508.991L1347.22 488.039L1319.09 516.169C1309.52 525.732 1304.68 538.401 1304.69 550.929C1304.68 563.457 1309.52 576.126 1319.09 585.68L1347.22 613.81L1368.17 592.867H1368.16ZM1236.38 640.769L1264.51 612.639C1268.37 608.793 1273.27 606.931 1278.32 606.914C1283.36 606.931 1288.27 608.793 1292.12 612.639L1320.25 640.769L1341.2 619.817L1313.08 591.687C1303.51 582.117 1290.85 577.273 1278.32 577.289C1265.79 577.273 1253.12 582.117 1243.56 591.687L1215.43 619.817L1236.38 640.769ZM1188.49 508.991L1216.61 537.121C1220.45 540.976 1222.31 545.886 1222.33 550.929C1222.31 555.972 1220.45 560.882 1216.61 564.736L1188.49 592.867L1209.44 613.818L1237.56 585.688C1247.13 576.126 1251.98 563.465 1251.96 550.937C1251.98 538.409 1247.13 525.74 1237.56 516.178L1209.44 488.048L1188.49 509V508.991Z" fill="#4E18A5"/>
<path d="M1002.65 706.533L1002.64 736.158H962.862C949.334 736.163 936.957 730.636 928.106 721.759C919.236 712.912 913.703 700.53 913.709 687V647.218L943.332 647.212L943.33 686.994C943.342 692.434 945.493 697.228 949.046 700.805C952.624 704.359 957.41 706.515 962.856 706.521H1002.63L1002.65 706.533ZM943.342 833.586V793.805C943.354 788.364 945.511 783.576 949.064 779.999C952.647 776.439 957.434 774.283 962.868 774.277H1002.65L1002.65 744.653H962.873C949.346 744.647 936.963 750.181 928.117 759.05C919.248 767.897 913.715 780.281 913.727 793.803V833.586L943.348 833.592L943.342 833.586ZM816.295 774.271H856.074C861.518 774.277 866.3 776.427 869.884 779.987C873.437 783.565 875.592 788.352 875.598 793.799V833.58H905.227V793.799C905.233 780.269 899.706 767.891 890.83 759.038C881.983 750.169 869.602 744.635 856.074 744.641H816.295V774.271ZM875.598 647.218V687C875.588 692.44 873.431 697.228 869.878 700.805C866.3 704.359 861.512 706.515 856.074 706.527H816.295V736.158H856.074C869.602 736.164 881.977 730.636 890.824 721.765C899.694 712.918 905.227 700.534 905.221 687.006V647.224H875.592L875.598 647.218Z" fill="#4E18A5"/>
<path d="M53.0144 650.564L73.9568 671.517L45.8282 699.647C36.2673 709.218 23.6074 714.062 11.0722 714.045C-1.45466 714.062 -14.1229 709.218 -23.6843 699.647L-51.8119 671.517L-30.8697 650.564L-2.74234 678.696C1.11211 682.534 6.02194 684.402 11.0638 684.419C16.1057 684.402 21.0157 682.542 24.8703 678.696L52.9977 650.564H53.0144ZM100.912 782.343L72.785 754.212C68.9472 750.358 67.0859 745.448 67.0703 740.406C67.0859 735.354 68.9472 730.444 72.785 726.598L100.912 698.468L79.9701 677.515L51.8427 705.645C42.2734 715.208 37.4306 727.876 37.4474 740.406C37.4306 752.933 42.2734 765.603 51.8427 775.156L79.9701 803.286L100.921 782.343H100.912ZM-30.8614 830.245L-2.73407 802.116C1.12038 798.269 6.02195 796.408 11.0722 796.391C16.1141 796.408 21.0241 798.269 24.8787 802.116L53.006 830.245L73.9568 809.293L45.8282 781.163C36.2673 771.593 23.6074 766.75 11.0722 766.765C-1.45466 766.75 -14.1229 771.593 -23.6843 781.163L-51.8119 809.293L-30.8614 830.245ZM-78.7598 698.468L-50.6322 726.598C-46.7944 730.453 -44.9336 735.362 -44.9171 740.406C-44.9336 745.448 -46.7944 750.358 -50.6322 754.212L-78.7598 782.343L-57.8095 803.295L-29.6819 775.165C-20.1123 765.603 -15.2692 752.942 -15.2858 740.414C-15.2692 727.885 -20.1123 715.215 -29.6819 705.654L-57.8095 677.524L-78.7598 698.476V698.468Z" fill="#4E18A5"/>
<path d="M104.099 596.236L84.3392 618.307L54.6993 591.775C44.6159 582.756 39.0803 570.383 38.4041 557.865C37.6945 545.356 41.829 532.439 50.8558 522.362L77.3853 492.719L99.462 512.473L72.9325 542.115C69.3132 546.176 67.7185 551.182 67.9803 556.218C68.276 561.252 70.4061 566.052 74.4592 569.688L104.099 596.22L104.099 596.236ZM-24.8158 651.352L1.71372 621.709C5.34909 617.664 10.1489 615.534 15.1819 615.239C20.226 614.977 25.2306 616.563 29.2836 620.183L58.9226 646.714L78.6827 624.644L49.0437 598.113C38.9675 589.085 26.0512 584.95 13.5448 585.659C1.03583 586.335 -11.3459 591.872 -20.3545 601.955L-46.884 631.598L-24.8162 651.36L-24.8158 651.352ZM-79.9268 522.416L-50.2872 548.947C-46.2339 552.584 -44.1052 557.375 -43.8094 562.418C-43.5473 567.454 -45.1333 572.459 -48.7603 576.52L-75.2898 606.163L-53.2131 625.924L-26.6836 596.282C-17.6576 586.205 -13.5219 573.296 -14.2315 560.779C-14.9081 548.27 -20.4438 535.887 -30.5276 526.869L-60.1674 500.337L-79.9268 522.416ZM48.9889 467.3L22.4594 496.943C18.8233 500.988 14.024 503.118 8.99002 503.414C3.95463 503.676 -1.04972 502.089 -5.11069 498.47L-34.7503 471.938L-54.5108 494.017L-24.8711 520.549C-14.7945 529.575 -1.88684 533.712 10.6204 533.002C23.129 532.326 35.5105 526.789 44.5276 516.705L71.0571 487.063L48.9805 467.301L48.9889 467.3Z" fill="#4E18A5"/>
<path d="M239.277 467.481L260.218 488.434L232.091 516.564C222.53 526.134 209.87 530.979 197.335 530.962C184.808 530.979 172.14 526.134 162.578 516.564L134.45 488.434L155.393 467.481L183.52 495.613C187.375 499.451 192.283 501.319 197.327 501.336C202.368 501.319 207.278 499.458 211.132 495.613L239.26 467.481H239.277ZM287.175 599.259L259.048 571.129C255.21 567.274 253.349 562.365 253.332 557.323C253.349 552.271 255.21 547.361 259.048 543.515L287.175 515.385L266.233 494.432L238.105 522.562C228.535 532.124 223.692 544.793 223.709 557.323C223.692 569.85 228.535 582.52 238.105 592.073L266.233 620.203L287.183 599.259H287.175ZM155.401 647.162L183.528 619.033C187.383 615.186 192.283 613.324 197.335 613.308C202.377 613.324 207.287 615.186 211.14 619.033L239.269 647.162L260.218 626.21L232.091 598.08C222.53 588.51 209.87 583.665 197.335 583.682C184.808 583.665 172.14 588.51 162.578 598.08L134.45 626.21L155.401 647.162ZM107.502 515.385L135.631 543.515C139.468 547.37 141.328 552.279 141.345 557.323C141.328 562.365 139.468 567.274 135.631 571.129L107.502 599.259L128.453 620.212L156.58 592.082C166.151 582.52 170.993 569.859 170.977 557.33C170.993 544.802 166.151 532.132 156.58 522.571L128.453 494.441L107.502 515.393V515.385Z" fill="#4E18A5"/>
<path d="M951.405 463.644L972.346 484.596L944.219 512.726C934.658 522.296 921.998 527.139 909.463 527.124C896.936 527.139 884.268 522.296 874.705 512.726L846.578 484.596L867.52 463.644L895.648 491.773C899.502 495.612 904.412 497.481 909.454 497.498C914.496 497.481 919.406 495.62 923.261 491.773L951.388 463.644H951.405ZM999.303 595.421L971.175 567.291C967.338 563.436 965.476 558.527 965.459 553.483C965.476 548.433 967.338 543.522 971.175 539.676L999.303 511.546L978.36 490.594L950.233 518.724C940.664 528.286 935.821 540.956 935.838 553.483C935.821 566.011 940.664 578.681 950.233 588.235L978.36 616.365L999.311 595.421H999.303ZM867.529 643.323L895.656 615.193C899.511 611.347 904.412 609.487 909.463 609.47C914.505 609.487 919.415 611.347 923.269 615.193L951.396 643.323L972.346 622.372L944.219 594.242C934.658 584.671 921.998 579.827 909.463 579.844C896.936 579.827 884.268 584.671 874.705 594.242L846.578 622.372L867.529 643.323ZM819.631 511.546L847.758 539.676C851.596 543.531 853.456 548.441 853.473 553.483C853.456 558.527 851.596 563.436 847.758 567.291L819.631 595.421L840.58 616.374L868.708 588.244C878.278 578.681 883.121 566.02 883.104 553.492C883.121 540.964 878.278 528.295 868.708 518.733L840.58 490.603L819.631 511.554V511.546Z" fill="#4E18A5"/>
<path d="M764.214 709.004H742.693" stroke="black" stroke-width="0.885417"/>
</g>
</g>
<g opacity="0.05">
<path d="M1207.29 0.0516815L1207.31 73.7525L1134.06 0.0253906L1207.29 0.0516815Z" fill="#F8F3FF"/>
<path fill-rule="evenodd" clip-rule="evenodd" d="M1280.58 147.481L1280.55 73.7797L1207.33 73.7534L1134.1 73.7271L1134.12 147.428L1060.87 73.7008L1134.07 0.0262908L1060.84 0L1060.87 73.7008L1060.89 147.402L1134.12 147.428L1134.15 221.13L1207.38 221.156L1280.61 221.182L1280.58 147.481ZM1280.58 147.481L1207.38 221.156L1134.12 147.428L1207.35 147.454L1207.33 73.7534L1280.58 147.481Z" fill="#F8F3FF"/>
</g>
<path d="M743.263 -1.81315L796.462 -19.4031L1163.57 -152.966L1310.09 227.397C1310.09 227.397 1331.18 250.473 1316.26 262.052C1175.92 304.91 1153.94 242.207 1131.39 169.68C1119.92 132.79 1036.94 135.954 986.058 123.738C945.353 113.965 912.357 73.3939 900.947 54.3299C890.7 34.6731 860.637 3.75663 814.796 9.74664C773.056 15.2007 755.051 12.3984 743.263 -1.81315Z" fill="#FFBCA3"/>
<g filter="url(#filter0_d_2258_4192)">
<path d="M752.348 -3.96922L805.547 -21.5591L1286.07 -21.559L1286.07 225.508C1286.07 225.508 1340.26 248.317 1325.35 259.896C1185 302.754 1163.03 240.051 1140.48 167.524C1129 130.633 1046.02 133.798 995.143 121.582C954.438 111.809 921.442 71.2378 910.032 52.1739C899.785 32.517 869.722 1.60056 823.881 7.59056C782.141 13.0446 764.136 10.2423 752.348 -3.96922Z" fill="#F56D3B"/>
</g>
<path d="M97.96 242V231.728L98.664 232.272H95.576V230.32H100.216V242H97.96Z" fill="white"/>
</g>
<defs>
<filter id="filter0_d_2258_4192" x="702.357" y="-68.8473" width="675.578" height="395.424" filterUnits="userSpaceOnUse" color-interpolation-filters="sRGB">
<feFlood flood-opacity="0" result="BackgroundImageFix"/>
<feColorMatrix in="SourceAlpha" type="matrix" values="0 0 0 0 0 0 0 0 0 0 0 0 0 0 0 0 0 0 127 0" result="hardAlpha"/>
<feOffset dy="2.70221"/>
<feGaussianBlur stdDeviation="24.9955"/>
<feComposite in2="hardAlpha" operator="out"/>
<feColorMatrix type="matrix" values="0 0 0 0 0.960784 0 0 0 0 0.427451 0 0 0 0 0.231373 0 0 0 0.25 0"/>
<feBlend mode="normal" in2="BackgroundImageFix" result="effect1_dropShadow_2258_4192"/>
<feBlend mode="normal" in="SourceGraphic" in2="effect1_dropShadow_2258_4192" result="shape"/>
</filter>
<clipPath id="clip0_2258_4192">
<rect width="1280" height="1745" fill="white"/>
</clipPath>
<clipPath id="clip1_2258_4192">
<path d="M-2 1642.58C-2 1662.14 13.8566 1678 33.4167 1678H1279V-2.20537e-05H33.4166C13.8565 -2.20537e-05 -2 15.8565 -2 35.4166L-2 1642.58Z" fill="white"/>
</clipPath>
</defs>
</svg>
