<svg width="150" height="49" viewBox="0 0 150 49" fill="none" xmlns="http://www.w3.org/2000/svg">
<path fill-rule="evenodd" clip-rule="evenodd" d="M1.78913 36.7053C4.9495 43.6559 11.9624 48.4848 20.1245 48.4848C31.238 48.4848 40.2359 39.5038 40.2359 28.4401V26.6569L33.6148 33.0608C31.238 35.3646 27.3463 34.9481 25.5049 32.1887C24.0162 29.9369 24.4602 26.9302 26.5366 25.2121L32.779 20.0447L25.8837 17.7799C25.1001 17.5196 24.6691 16.6736 24.9303 15.8796C25.1915 15.0986 26.0404 14.6691 26.837 14.9294L34.3592 17.4025C36.3312 18.0533 36.8274 20.6174 35.2211 21.9451L28.4825 27.529C27.5814 28.2709 27.3986 29.5725 28.0385 30.5357C28.8351 31.7202 30.5067 31.9024 31.5384 30.9132L40.262 22.4787V15.1637L23.8725 9.85316C22.7364 9.4757 21.561 10.3348 21.561 11.5192L21.5741 34.9221C21.5741 37.9288 18.8055 40.1936 15.841 39.5819L1.78913 36.7053ZM0 21.3203V0H40.2359V12.0138L24.8128 6.98963C21.7308 5.98739 18.5574 8.27822 18.5574 11.5192L18.5704 34.9221C18.5704 36.0285 17.5518 36.8615 16.4548 36.6402L0.62685 33.4122C0.222009 31.8243 0 30.1582 0 28.4401V25.8759L8.89343 15.7755C9.72923 14.8253 11.2311 14.8774 12.0016 15.8926C12.5762 16.6606 12.537 17.7279 11.884 18.4307L5.05397 25.9671C3.64356 27.529 4.54466 30.0411 6.63416 30.3535L14.731 31.564C15.5537 31.6811 16.3242 31.1214 16.4417 30.3014C16.5593 29.4814 15.9977 28.7134 15.175 28.5963L7.7442 27.4899L14.1302 20.4482C15.7365 18.665 15.8541 15.9967 14.4045 14.0834C12.4848 11.5583 8.72366 11.4151 6.63416 13.797L0 21.3203Z" fill="black"/>
<path d="M146.083 20.9177V8.04484H148.525V20.9177H146.083ZM133.69 18.2364V15.9716H140.507V18.2364H133.69ZM131.326 20.9177L135.27 8.04484H138.913L142.857 20.9177H140.35L136.837 9.56772H137.307L133.846 20.9177H131.326ZM118.606 21.1911C117.653 21.1911 116.791 21.0219 116.007 20.6964C115.237 20.358 114.61 19.8764 114.114 19.2517C113.617 18.6139 113.317 17.872 113.187 16.9999L115.733 16.6224C115.916 17.3643 116.282 17.937 116.843 18.3275C117.405 18.731 118.045 18.9263 118.763 18.9263C119.168 18.9263 119.546 18.8612 119.925 18.744C120.304 18.6139 120.604 18.4317 120.852 18.1844C121.101 17.937 121.218 17.6377 121.218 17.2862C121.218 17.1561 121.192 17.0259 121.153 16.9088C121.114 16.7786 121.048 16.6615 120.97 16.5573C120.878 16.4532 120.748 16.3491 120.578 16.258C120.421 16.1669 120.212 16.0757 119.964 15.9977L116.608 15.0084C116.36 14.9433 116.06 14.8392 115.733 14.7091C115.407 14.5789 115.08 14.3967 114.78 14.1494C114.466 13.9021 114.205 13.5767 113.996 13.1862C113.787 12.7827 113.696 12.2751 113.696 11.6633C113.696 10.8042 113.918 10.0753 114.349 9.50264C114.78 8.92993 115.367 8.5004 116.099 8.22706C116.83 7.94071 117.64 7.81055 118.515 7.81055C119.403 7.82356 120.199 7.97976 120.905 8.26611C121.61 8.55246 122.184 8.98199 122.668 9.54168C123.138 10.1014 123.477 10.7782 123.686 11.5852L121.048 12.0278C120.957 11.6112 120.774 11.2598 120.513 10.9735C120.252 10.6871 119.951 10.4658 119.586 10.3226C119.233 10.1795 118.867 10.0884 118.476 10.0753C118.097 10.0623 117.731 10.1144 117.392 10.2315C117.052 10.3487 116.778 10.5179 116.569 10.7261C116.36 10.9474 116.255 11.2077 116.255 11.5071C116.255 11.7935 116.347 12.0147 116.517 12.197C116.686 12.3662 116.908 12.5093 117.17 12.6135C117.431 12.7176 117.705 12.8087 117.979 12.8868L120.226 13.4986C120.565 13.5897 120.931 13.7068 121.336 13.85C121.74 13.9932 122.132 14.2014 122.498 14.4618C122.877 14.7221 123.177 15.0605 123.425 15.477C123.673 15.9065 123.791 16.4402 123.791 17.091C123.791 17.7809 123.647 18.3926 123.347 18.9002C123.059 19.4079 122.668 19.8374 122.184 20.1758C121.688 20.5142 121.14 20.7615 120.513 20.9307C119.899 21.113 119.259 21.1911 118.606 21.1911ZM101.864 18.2364V15.9716H108.681V18.2364H101.864ZM99.4873 20.9177L103.431 8.04484H107.088L111.032 20.9177H108.524L104.998 9.56772H105.468L102.008 20.9177H99.4873ZM89.3793 14.2925H92.2915C92.4221 14.2925 92.5527 14.2925 92.7094 14.2795C92.8531 14.2665 92.9967 14.2405 93.1273 14.2014C93.4538 14.1103 93.715 13.9671 93.8848 13.7589C94.0676 13.5506 94.1851 13.3033 94.2504 13.056C94.3157 12.7957 94.3549 12.5484 94.3549 12.3141C94.3549 12.0798 94.3157 11.8325 94.2504 11.5852C94.1851 11.3249 94.0676 11.0906 93.8848 10.8823C93.6889 10.648 93.4408 10.4919 93.1012 10.4138C92.9706 10.3747 92.84 10.3487 92.6833 10.3487C92.5397 10.3357 92.396 10.3357 92.2654 10.3357H89.3532V14.2925H89.3793ZM94.2243 20.9177L91.6777 15.6722L94.1852 15.1907L96.9799 20.9177H94.2243ZM86.9372 20.9177V8.04484H92.396C92.5266 8.04484 92.6833 8.04484 92.8923 8.05785C93.1012 8.05785 93.2971 8.08388 93.4669 8.10992C94.2374 8.22706 94.8642 8.48738 95.3605 8.86485C95.8567 9.25533 96.2224 9.73692 96.4575 10.3357C96.6925 10.9214 96.8101 11.5722 96.8101 12.2881C96.8101 13.3684 96.5358 14.2925 96.0004 15.0605C95.465 15.8284 94.6161 16.297 93.4669 16.4792L92.396 16.5443H89.3793V20.9047H86.9372V20.9177ZM74.7267 18.2364V15.9716H81.5437V18.2364H74.7267ZM72.3499 20.9177L76.2938 8.04484H79.9374L83.8813 20.9177H81.3739L77.8609 9.56772H78.3311L74.8703 20.9177H72.3499ZM64.6579 21.1911C63.7046 21.1911 62.8427 21.0219 62.0591 20.6964C61.2886 20.358 60.6618 19.8764 60.1655 19.2517C59.6692 18.6139 59.3689 17.872 59.2383 16.9999L61.7849 16.6224C61.9677 17.3643 62.3334 17.937 62.8949 18.3275C63.4565 18.731 64.0964 18.9263 64.8146 18.9263C65.2195 18.9263 65.5982 18.8612 65.9769 18.744C66.3556 18.6139 66.656 18.4317 66.9041 18.1844C67.1523 17.937 67.2698 17.6377 67.2698 17.2862C67.2698 17.1561 67.2437 17.0259 67.2045 16.9088C67.1653 16.7786 67.1 16.6615 67.0217 16.5573C66.9302 16.4532 66.7997 16.3491 66.6299 16.258C66.4732 16.1669 66.2642 16.0757 66.0161 15.9977L62.6598 15.0084C62.4117 14.9433 62.1113 14.8392 61.7849 14.7091C61.4584 14.5789 61.1319 14.3967 60.8185 14.1494C60.505 13.9021 60.2439 13.5767 60.0349 13.1862C59.826 12.7827 59.7345 12.2751 59.7345 11.6633C59.7345 10.8042 59.9565 10.0753 60.3875 9.50264C60.8185 8.92993 61.4061 8.5004 62.1375 8.22706C62.8688 7.94071 63.6785 7.81055 64.5534 7.81055C65.4415 7.82356 66.2381 7.97976 66.9433 8.26611C67.6485 8.55246 68.2231 8.98199 68.7063 9.54168C69.1765 10.1014 69.516 10.7782 69.725 11.5852L67.087 12.0278C66.9955 11.6112 66.8127 11.2598 66.5515 10.9735C66.2903 10.6871 65.99 10.4658 65.6243 10.3226C65.2978 10.1665 64.9191 10.0753 64.5404 10.0623C64.1617 10.0493 63.796 10.1014 63.4565 10.2185C63.1169 10.3357 62.8427 10.5049 62.6337 10.7131C62.4248 10.9344 62.3203 11.1947 62.3203 11.4941C62.3203 11.7804 62.4117 12.0017 62.5815 12.1839C62.7512 12.3532 62.9733 12.4963 63.2344 12.6005C63.4956 12.7046 63.7699 12.7957 64.0441 12.8738L66.2903 13.4856C66.6299 13.5767 66.9955 13.6938 67.4004 13.837C67.8052 13.9802 68.197 14.1884 68.5627 14.4487C68.9414 14.7091 69.2418 15.0475 69.4899 15.464C69.738 15.8935 69.8555 16.4272 69.8555 17.078C69.8555 17.7678 69.7119 18.3796 69.4115 18.8872C69.1242 19.3948 68.7324 19.8244 68.2492 20.1628C67.753 20.5012 67.2045 20.7485 66.5776 20.9177C65.9508 21.113 65.3239 21.1911 64.6579 21.1911Z" fill="black"/>
<path d="M145.587 40.1668V33.2162H150.001V34.0362H146.449V36.2099H149.413V37.0299H146.449V39.3598H150.001V40.1798H145.587V40.1668ZM135.949 40.1668V34.0362H133.572V33.2162H139.188V34.0362H136.811V40.1668H135.949ZM124.431 40.3099C123.895 40.3099 123.412 40.1928 123.007 39.9715C122.589 39.7502 122.263 39.4379 122.028 39.0344C121.793 38.6309 121.675 38.1623 121.675 37.6156V33.2032H122.55V37.5505C122.55 37.8759 122.602 38.1623 122.72 38.4096C122.837 38.6569 122.981 38.8521 123.164 39.0083C123.347 39.1645 123.556 39.2947 123.765 39.3728C123.987 39.4509 124.209 39.4899 124.431 39.4899C124.653 39.4899 124.875 39.4509 125.097 39.3728C125.319 39.2947 125.528 39.1775 125.697 39.0214C125.88 38.8652 126.024 38.6569 126.141 38.4096C126.246 38.1623 126.311 37.8759 126.311 37.5505V33.2032H127.186V37.6156C127.186 38.1493 127.069 38.6179 126.834 39.0214C126.599 39.4248 126.272 39.7372 125.867 39.9585C125.449 40.2058 124.966 40.3099 124.431 40.3099ZM112.05 40.1668V34.0362H109.674V33.2162H115.289V34.0362H112.912V40.1668H112.05ZM102.321 40.1668V33.2162H103.183V40.1668H102.321ZM92.592 40.1668V34.0362H90.2151V33.2162H95.8307V34.0362H93.4539V40.1668H92.592ZM81.5437 40.3099C81.0475 40.3099 80.6034 40.2318 80.2117 40.0626C79.8199 39.8934 79.4934 39.6591 79.2322 39.3468C78.971 39.0344 78.8143 38.6699 78.736 38.2404L79.624 38.0972C79.7415 38.5398 79.9766 38.8782 80.3292 39.1255C80.6818 39.3728 81.1128 39.4899 81.596 39.4899C81.9094 39.4899 82.1967 39.4379 82.4448 39.3468C82.706 39.2426 82.9019 39.0994 83.0456 38.9172C83.1892 38.735 83.2676 38.5137 83.2676 38.2664C83.2676 38.1102 83.2414 37.9801 83.1892 37.8759C83.137 37.7588 83.0586 37.6677 82.9672 37.5896C82.8758 37.5115 82.7713 37.4464 82.6538 37.3813C82.5362 37.3293 82.4187 37.2772 82.2881 37.2512L80.512 36.7305C80.3161 36.6785 80.1333 36.6004 79.9505 36.5092C79.7677 36.4181 79.6109 36.314 79.4673 36.1708C79.3236 36.0407 79.2061 35.8715 79.1277 35.6892C79.0494 35.494 78.9972 35.2727 78.9972 35.0124C78.9972 34.5959 79.1016 34.2445 79.3106 33.9581C79.5326 33.6587 79.8199 33.4375 80.1856 33.2813C80.5512 33.1251 80.9691 33.047 81.4262 33.06C81.8963 33.06 82.3142 33.1511 82.6799 33.3073C83.0456 33.4635 83.359 33.6978 83.594 33.9972C83.8422 34.2965 83.9989 34.661 84.0903 35.0775L83.1761 35.2337C83.1239 34.9473 83.0194 34.713 82.8497 34.5048C82.6799 34.2965 82.484 34.1403 82.2359 34.0362C81.9877 33.9191 81.7135 33.867 81.4131 33.867C81.1258 33.867 80.8777 33.906 80.6426 33.9972C80.4076 34.0883 80.2247 34.2184 80.0941 34.3876C79.9635 34.5568 79.8852 34.7391 79.8852 34.9603C79.8852 35.1686 79.9505 35.3508 80.068 35.481C80.1856 35.6111 80.3423 35.7153 80.512 35.7934C80.6949 35.8715 80.8646 35.9235 81.0344 35.9756L82.3665 36.3531C82.5232 36.3921 82.693 36.4572 82.8888 36.5223C83.0847 36.6004 83.2806 36.7045 83.4765 36.8347C83.6593 36.9648 83.8161 37.147 83.9466 37.3683C84.0642 37.5896 84.1295 37.8629 84.1295 38.2013C84.1295 38.5398 84.0642 38.8391 83.9205 39.0994C83.7899 39.3598 83.6071 39.581 83.359 39.7503C83.1239 39.9195 82.8366 40.0496 82.5232 40.1407C82.2489 40.2579 81.9094 40.3099 81.5437 40.3099ZM66.7083 40.1668V33.2162H67.5833L71.2268 38.6439V33.2162H72.1018V40.1668H71.2268L67.5833 34.7261V40.1668H66.7083ZM58.7812 40.1668V33.2162H59.6432V40.1668H58.7812Z" fill="black"/>
</svg>
