<svg width="60" height="79" viewBox="0 0 60 79" fill="none" xmlns="http://www.w3.org/2000/svg">
<g opacity="0.8">
<path opacity="0.6" d="M6.70996 76C10.187 76 13.0484 76.4164 13.3857 76.9512L13.3867 76.9531C13.3978 76.9703 13.4066 76.9874 13.4121 77.0049C13.4126 77.0064 13.4117 77.0083 13.4121 77.0098C13.4172 77.0253 13.4209 77.0409 13.4209 77.0566C13.4209 77.075 13.4173 77.0933 13.4111 77.1113C13.2312 77.6707 10.2978 78.1133 6.70996 78.1133C3.00621 78.1235 0 77.6414 0 77.0566C0.00037871 76.4719 3.00644 76 6.70996 76Z" fill="#A7A9AC"/>
</g>
<path d="M29.17 21V18.48C29.17 17.928 29.254 17.448 29.422 17.04C29.602 16.632 29.89 16.272 30.286 15.96C30.694 15.636 31.228 15.33 31.888 15.042L34.12 14.052C34.672 13.8 35.092 13.494 35.38 13.134C35.68 12.762 35.83 12.288 35.83 11.712C35.83 11.076 35.638 10.572 35.254 10.2C34.882 9.816 34.348 9.624 33.652 9.624C32.956 9.624 32.416 9.816 32.032 10.2C31.66 10.584 31.474 11.118 31.474 11.802H29.008C29.008 10.986 29.182 10.254 29.53 9.606C29.878 8.946 30.394 8.43 31.078 8.058C31.762 7.674 32.62 7.482 33.652 7.482C34.684 7.482 35.542 7.668 36.226 8.04C36.91 8.412 37.426 8.91 37.774 9.534C38.122 10.146 38.296 10.83 38.296 11.586V11.82C38.296 12.804 38.02 13.626 37.468 14.286C36.916 14.934 36.106 15.498 35.038 15.978L32.806 16.968C32.386 17.148 32.092 17.34 31.924 17.544C31.756 17.736 31.672 18 31.672 18.336V19.488L31.06 18.822H38.35V21H29.17Z" fill="white"/>
<g opacity="0.8">
<path opacity="0.6" d="M6.70996 76C10.187 76 13.0484 76.4164 13.3857 76.9512L13.3867 76.9531C13.3978 76.9703 13.4066 76.9874 13.4121 77.0049C13.4126 77.0064 13.4117 77.0083 13.4121 77.0098C13.4172 77.0253 13.4209 77.0409 13.4209 77.0566C13.4209 77.075 13.4173 77.0933 13.4111 77.1113C13.2312 77.6707 10.2978 78.1133 6.70996 78.1133C3.00621 78.1235 0 77.6414 0 77.0566C0.00037871 76.4719 3.00644 76 6.70996 76Z" fill="#A7A9AC"/>
</g>
<path d="M51.3692 30H9V0H51.3692L60 15L51.3692 30Z" fill="url(#paint0_linear_2258_4376)"/>
<path d="M8 0V77.6859C8 77.855 9.11905 78 10.5 78C11.881 78 13 77.855 13 77.6859V0H8Z" fill="url(#paint1_linear_2258_4376)"/>
<defs>
<linearGradient id="paint0_linear_2258_4376" x1="34.5" y1="0" x2="34.5" y2="30" gradientUnits="userSpaceOnUse">
<stop stop-color="#B3A3BC"/>
<stop offset="1" stop-color="#866298"/>
</linearGradient>
<linearGradient id="paint1_linear_2258_4376" x1="10.5" y1="0" x2="10.5" y2="78" gradientUnits="userSpaceOnUse">
<stop stop-color="#B3A3BC"/>
<stop offset="1" stop-color="#866298"/>
</linearGradient>
</defs>
</svg>
