<svg width="60" height="79" viewBox="0 0 60 79" fill="none" xmlns="http://www.w3.org/2000/svg">
<g opacity="0.8">
<path opacity="0.6" d="M6.70996 76C10.187 76 13.0484 76.4164 13.3857 76.9512L13.3867 76.9531C13.3978 76.9703 13.4066 76.9874 13.4121 77.0049C13.4126 77.0064 13.4117 77.0083 13.4121 77.0098C13.4172 77.0253 13.4209 77.0409 13.4209 77.0566C13.4209 77.075 13.4173 77.0933 13.4111 77.1113C13.2312 77.6707 10.2978 78.1133 6.70996 78.1133C3.00621 78.1235 0 77.6414 0 77.0566C0.00037871 76.4719 3.00644 76 6.70996 76Z" fill="url(#paint0_linear_2258_4281)"/>
</g>
<path d="M51.3692 30H9V0H51.3692L60 15L51.3692 30Z" fill="url(#paint1_linear_2258_4281)"/>
<path d="M8 0V77.6859C8 77.855 9.11905 78 10.5 78C11.881 78 13 77.855 13 77.6859V0H8Z" fill="url(#paint2_linear_2258_4281)"/>
<defs>
<linearGradient id="paint0_linear_2258_4281" x1="0.0111841" y1="76.9171" x2="13.4513" y2="76.9171" gradientUnits="userSpaceOnUse">
<stop offset="0.1436" stop-color="#FF0000"/>
<stop offset="0.741" stop-color="#C20808"/>
</linearGradient>
<linearGradient id="paint1_linear_2258_4281" x1="9.0425" y1="13.0187" x2="60.1154" y2="13.0187" gradientUnits="userSpaceOnUse">
<stop offset="0.1436" stop-color="#FF0000"/>
<stop offset="0.741" stop-color="#C20808"/>
</linearGradient>
<linearGradient id="paint2_linear_2258_4281" x1="8.00417" y1="33.8485" x2="13.0113" y2="33.8485" gradientUnits="userSpaceOnUse">
<stop offset="0.1436" stop-color="#FF0000"/>
<stop offset="0.741" stop-color="#C20808"/>
</linearGradient>
</defs>
</svg>
